<mxfile host="Electron" agent="Mozilla/5.0 (Macintosh; Intel Mac OS X 10_15_7) AppleWebKit/537.36 (KHTML, like Gecko) draw.io/27.0.9 Chrome/134.0.6998.205 Electron/35.4.0 Safari/537.36" version="27.0.9">
  <diagram name="Page-1" id="BIT76RC_quAsg-jpFB7F">
    <mxGraphModel dx="1549" dy="2137" grid="1" gridSize="10" guides="1" tooltips="1" connect="1" arrows="1" fold="1" page="0" pageScale="1" pageWidth="827" pageHeight="1169" math="0" shadow="0">
      <root>
        <mxCell id="0" />
        <mxCell id="1" parent="0" />
        <mxCell id="XSCT2WYPgkQ0aujzjNFR-8" value="" style="shape=image;verticalLabelPosition=bottom;verticalAlign=top;imageAspect=0;aspect=fixed;image=data:image/svg+xml,PHN2ZyB4bWxucz0iaHR0cDovL3d3dy53My5vcmcvMjAwMC9zdmciIHZpZXdCb3g9IjAgMCA2Mi4zNjE5OTk1MTE3MTg3NSA2Mi4zNjE5OTk1MTE3MTg3NSIgd2lkdGg9IjYyLjM2MTk5OTUxMTcxODc1IiBoZWlnaHQ9IjYyLjM2MTk5OTUxMTcxODc1Ij48cGF0aCBzdHlsZT0iZmlsbDojZGEyOTFjIiBkPSJNMzEuMzE1IDYyLjM2MkMxMy40ODMgNjIuMzYyIDAgNDcuNTkgMCAzMS4zMTUgMCAxMi42MzMgMTUuNTU3IDAgMzEuMDggMGMxOC42MDIgMCAzMS4yODIgMTUuMzQgMzEuMjgyIDMwLjk0NyAwIDE5LjA1LTE1LjY1NyAzMS40MTUtMzEuMDQ3IDMxLjQxNSIvPjxwYXRoIHN0eWxlPSJmaWxsOiNmZmYiIGQ9Ik00NC4yMzMgMTkuODYyYy0uMDA3LTMuMzktNS42MTYtNS45NDUtMTMuMDU0LTUuOTQ1cy0xMy4wNDggMi41NTUtMTMuMDU1IDUuOTQ1djIwLjM0OWMwIDMuODY2IDYuNzI2IDUuOTUyIDEzLjA1NSA1Ljk1MnMxMy4wNTQtMi4wODYgMTMuMDU0LTUuOTUyem0tMjQuMTEgOS44NTdjMS43MTIgMS4wOTQgNS4wNzUgMi41IDExLjA1NiAyLjUgNS45OSAwIDkuMzUtMS40MTEgMTEuMDU0LTIuNTA2djUuMjM3Yy0xLjExLjkwNC00LjI1MSAyLjgwMy0xMS4wNTQgMi44MDMtNi43OCAwLTkuOTMtMS44ODYtMTEuMDU1LTIuNzk0em0yMi4xMS0xLjU1M2MtMS4xMS45MDMtNC4yNTEgMi44MDItMTEuMDU0IDIuODAyLTYuNzggMC05LjkzLTEuODg2LTExLjA1NS0yLjc5M3YtNS4wNjJjMi4yNyAxLjY1MSA2LjI4IDIuNzA3IDExLjA1NSAyLjcwN3M4Ljc4NS0xLjA1NiAxMS4wNTQtMi43MDd6TTMxLjE4IDE1LjkxNmM2Ljg0OCAwIDExLjA1NCAyLjMwMiAxMS4wNTQgMy45NTJTMzguMDI3IDIzLjgyIDMxLjE4IDIzLjgycy0xMS4wNTUtMi4zMDItMTEuMDU1LTMuOTUyIDQuMjA1LTMuOTUyIDExLjA1NS0zLjk1Mm0wIDI4LjI0N2MtNi44NSAwLTExLjA1NS0yLjMwMi0xMS4wNTUtMy45NTJ2LTMuNzA3YzEuNzExIDEuMDkzIDUuMDc0IDIuNDk5IDExLjA1NSAyLjQ5OSA1Ljk5IDAgOS4zNS0xLjQxIDExLjA1NC0yLjUwNXYzLjcxM2MwIDEuNjUtNC4yMDYgMy45NTItMTEuMDU0IDMuOTUyIi8+PC9zdmc+" vertex="1" parent="1">
          <mxGeometry x="546" y="880" width="560" height="560" as="geometry" />
        </mxCell>
        <mxCell id="XSCT2WYPgkQ0aujzjNFR-2" value="" style="shape=image;verticalLabelPosition=bottom;verticalAlign=top;imageAspect=0;aspect=fixed;image=data:image/svg+xml,PHN2ZyB4bWxucz0iaHR0cDovL3d3dy53My5vcmcvMjAwMC9zdmciIHZpZXdCb3g9IjAgMC4wMDIwMDAwMDAwOTQ5OTQ5MDI2IDYyLjM2MTk5OTUxMTcxODc1IDYyLjM2MjAwMzMyNjQxNjAxNiIgd2lkdGg9IjYyLjM2MTk5OTUxMTcxODc1IiBoZWlnaHQ9IjYyLjM2MjAwMzMyNjQxNjAxNiI+PHBhdGggc3R5bGU9ImZpbGw6I2RhMjkxYyIgZD0iTTMxLjMxNSA2Mi4zNjRDMTMuNDgzIDYyLjM2NCAwIDQ3LjU5MiAwIDMxLjMxNiAwIDEyLjYzNSAxNS41NTcuMDAyIDMxLjA4LjAwMmMxOC42MDIgMCAzMS4yODIgMTUuMzQgMzEuMjgyIDMwLjk0NyAwIDE5LjA1LTE1LjY1NyAzMS40MTUtMzEuMDQ3IDMxLjQxNSIvPjxwYXRoIHN0eWxlPSJmaWxsOiNmZmYiIGQ9Ik0zMC40OTIgMjAuMjY3Yy0uOTgxIDAtMS43MDguNjI1LTIuMDYgMS4wMnEtLjAwOS4wMTItLjAyLjAyMmMtLjU4Ny41NjctMy4xOTcgNS4zNDctMy40MjUgNy41NS0uMTUgMS40NDMuNjc5IDMuNDUyIDEuNDggNS4zOTQuNTAyIDEuMjE3Ljg4MSAyLjE2My45MDQgMi41NTJsLjA2MiA4LjFjMCAxLjMxMy42ODQgMi41MDggMS44MyAzLjE5OSAxLjMuNzgyIDMuMDc3LjgxOCA0LjQyOS4wODRsMTAuOTM1LTYuMzQyYzMuMjkxLTIuMTAzIDMuMjYyLTMuODgyIDMuMjI0LTYuMTM0bC0uMDA4LTExLjM0M2MwLTIuNzI2LS4yMDQtNC42MjgtMi45MzItNi4xNzVsLTkuMjgtNC45MTZhOC4xOCA4LjE4IDAgMCAwLTcuOTQtLjA0bC04LjcwOCA0Ljk2N2MtMi4zNjIgMS4zMDUtNC40OCAyLjc1Ny00LjQ4IDYuMTYzdjEwLjU1YzAgMi45MDcgMS40NTkgNS42NTMgMy45MDIgNy4zNDQuMDYyLjA0NC42MDUuMzg4IDMuNTUyIDIuMjE0YS45OTkuOTk5IDAgMCAwIDEuNS0xLjA3OCAxIDEgMCAwIDAtLjQ0NS0uNjJsLS4wMDgtLjAwNS0uNjU5LS40MWMtLjk1Ni0uNTkzLTIuNjItMS42MjUtMi43OTMtMS43NC0xLjkxMS0xLjMyMS0zLjA0OS0zLjQ1My0zLjA0OS01LjcwNlYyNC4zNjhjMC0xLjk0Ni43NzYtMi45MzcgMy40Ni00LjQybDguNzA3LTQuOTY1YTYuMTggNi4xOCAwIDAgMSA1Ljk5OC4wNDlsOS4yOCA0LjkxNWMxLjY0OC45MzUgMS44OTUgMS44MjkgMS44OTUgNC40MjF2MTAuNTVxMCAuNDMyLjAxLjgyNmMuMDM0IDIuMTIzLjA0NyAyLjkxNi0yLjI2NiA0LjM5NGwtMTAuODc1IDYuMzA2Yy0uNzM0LjQtMS43MDIuMzc3LTIuNDE3LS4wNTNhMS43MyAxLjczIDAgMCAxLS44NjItMS40ODRsLS4wMDItNi43ODctLjA2Mi0xLjRjLS4wMzItLjcyLS40Mi0xLjY5NS0xLjA1Mi0zLjIyOC0uNzU4LTEuODM2LTEuNDMtMy41NTctMS4zNC00LjQyNy4xNzctMS43MSAyLjQwMy01Ljc3MyAyLjc4Ni02LjI3NC4yMzgtLjMwMS40NzktLjQ1MS41ODYtLjQ5NmEuNC40IDAgMCAxIC4xNDItLjAyOGwxLjkzMi0uMDA0aC4wMDFxLjA2MyAwIC4xMjIuMDJjLjEyNS4wNDQuMjUuMTQzLjQ2My4zMzUuMDE2LjAxNS4wODYuMDguMS4wOTcuNDguNjEzIDIuNjgxIDQuNjY3IDIuODU2IDYuMzUuMTUgMS40NDgtLjg5MyAzLjY0NC0xLjMzOSA0LjU4M3EtLjE1NC4zMi0uMjMxLjQ5OGExIDEgMCAwIDAgLjUzMSAxLjMxIDEuMDEgMS4wMSAwIDAgMCAxLjMxMy0uNTMyYy4wMzctLjA4OC4wOTYtLjIxNS4xNy0uMzcuNTg0LTEuMjI3IDEuNzU0LTMuNjg0IDEuNTQ1LTUuNjk3LS4yMy0yLjIwNS0yLjgzOC02Ljk4My0zLjQyNC03LjU0OC0uNDM0LS40MTYtMS4wODQtMS4wNDItMi4wOC0xLjA0MnoiLz48L3N2Zz4=" vertex="1" parent="1">
          <mxGeometry x="686" y="630" width="280" height="280" as="geometry" />
        </mxCell>
        <mxCell id="XSCT2WYPgkQ0aujzjNFR-3" value="\" style="shape=image;verticalLabelPosition=bottom;verticalAlign=top;imageAspect=0;aspect=fixed;image=data:image/svg+xml,PHN2ZyB4bWxucz0iaHR0cDovL3d3dy53My5vcmcvMjAwMC9zdmciIHZpZXdCb3g9IjAgMC4wMDIwMDAwMDAwOTQ5OTQ5MDI2IDYyLjM2MTk5OTUxMTcxODc1IDYyLjM2MjAwMzMyNjQxNjAxNiIgd2lkdGg9IjYyLjM2MTk5OTUxMTcxODc1IiBoZWlnaHQ9IjYyLjM2MjAwMzMyNjQxNjAxNiI+PHBhdGggc3R5bGU9ImZpbGw6I2RhMjkxYyIgZD0iTTMxLjMxNSA2Mi4zNjRDMTMuNDgzIDYyLjM2NCAwIDQ3LjU5MiAwIDMxLjMxNiAwIDEyLjYzNSAxNS41NTcuMDAyIDMxLjA4LjAwMmMxOC42MDIgMCAzMS4yODIgMTUuMzQgMzEuMjgyIDMwLjk0NyAwIDE5LjA1LTE1LjY1NyAzMS40MTUtMzEuMDQ3IDMxLjQxNSIvPjxwYXRoIHN0eWxlPSJmaWxsOiNmZmYiIGQ9Ik00MS4xNzQgMTYuNmMuNjM3IDAgMS4xNjYuMjk4IDEuNjI0LjkwNWE5MCA5MCAwIDAgMSAzLjE2MyA0LjQ3Yy42NC45NjcuODA0IDEuODc4LjUgMi43ODUtMS4wNTkgMy4xNjQtMy4yMDMgNS43MjQtNi4zNzUgNy42MDlhMSAxIDAgMCAwLS40NTguNjEzIDEgMSAwIDAgMCAuMTEuNzU4Yy4yNy40NTUuOTA4LjYyMiAxLjM3LjM0OCAzLjU5NC0yLjEzNiA2LjAzNC01LjA2MSA3LjI1LTguNjk0LjQ5Ny0xLjQ4Ny4yNDQtMy4wNS0uNzMtNC41MjNhOTIgOTIgMCAwIDAtMy4yMzYtNC41N2MtMS4yMDctMS42MDEtMy4wMDctMi4wOTYtNC45NDQtMS4zNThsLS4yNDMuMDlhNyA3IDAgMCAwLS44NTYuMzU4Yy0xLjEyMi41OTMtMi4yNTUuNjk0LTMuOTE1LjM1LTIuNzUtLjU2OC01LjM1Ny0uNTA3LTcuNzQ1LjE4NC0uMTc0LjA0OS0uNTY4LjEwMS0xLjI5LS4wODZhMjYgMjYgMCAwIDEtMS42MjMtLjVjLS43NjQtLjI1My0xLjQ5LS40OTMtMi4yNDQtLjY2NC0xLjIzLS4yOC0yLjQ0LjIzNS0zLjMyIDEuNDA2bC0uOTA0IDEuMTk3Yy0uODQ2IDEuMTEyLTEuNzIgMi4yNjItMi41NDQgMy40NTEtMS4wNzkgMS41NTMtMS4yOTcgMy4zNDItLjYzIDUuMTc1IDEuMDg2IDIuOTg5IDMuMTY3IDUuNTY5IDYuMzYxIDcuODg4YS45OC45OCAwIDAgMCAuNzQ1LjE3NyAxIDEgMCAwIDAgLjY1Mi0uNCAxIDEgMCAwIDAgLjE3OC0uNzQ0IDEgMSAwIDAgMC0uNC0uNjUzYy0yLjktMi4xMDUtNC42OTctNC4zMTMtNS42NTYtNi45NTItLjQ0OC0xLjIyOS0uMzItMi4zMjUuMzkyLTMuMzUuNzk4LTEuMTUgMS42NTYtMi4yOCAyLjQ4Ni0zLjM3MWwuOTItMS4yMThjLjQtLjUzNS44MTUtLjc1MyAxLjI2Ny0uNjU4LjY2NC4xNSAxLjMwNC4zNjIgMS45ODEuNTg3LjYyMy4yMDYgMS4yMjQuNDA1IDEuODM2LjU2NC45MS4yMzYgMS43MDIuMjYgMi4zNDkuMDcyIDIuMDczLS42IDQuMzU1LS42NDggNi43ODUtLjE0NSAxLjQxNy4yOTIgMy4yOTUuNDk1IDUuMjUyLS41NDJhNCA0IDAgMCAxIC41MzQtLjIyMWwuMzQ3LS4xMjdxLjU0Ny0uMjEgMS4wMS0uMjF6Ii8+PHBhdGggc3R5bGU9ImZpbGw6I2ZmZiIgZD0iTTI1Ljk2NyA0MS42NThjLS41OSAwLTEuMDEyLjE1OC0xLjMyMS40NzgtLjQzMi40NS0uNTAzIDEuMDYtLjIxNiAxLjg3Mi4wNjUuMjc3LjIyMi43MDMuNjggMS40MDIuOTQ2IDEuNDQ3IDIuNDkgMi4zMjYgNC4xMjkgMi4zNTJoLjA3MmMxLjUzNyAwIDIuOTYtLjc3NCAzLjkwMy0yLjEyNC41NjctLjgxLjk3Mi0yLjggMS41Mi02LjE5LjA4NC0uNTMuMTU1LS45Ny4yMDYtMS4yMzQuMDkyLS40NjUuNDYxLS44ODkuODE4LTEuMjk4LjE4OC0uMjE5LjM2Ni0uNDI2LjUwNi0uNjI3bC4wOC0uMTM0Yy4zOTktLjc2OS42NjUtMS41MjEuOC0yLjI3Ny4wNzItLjM4OC4wNjktLjc2OC4wNjYtMS4xMDRhOSA5IDAgMCAxIC4wMTQtLjcyNWwuMDEtLjEyMWMuMDAzLS4wMTQuMjU5LTEuNDEyLjg3OC0yLjQ0IDEuMjUxLTIuMDY4IDEuMjgyLTMuNTcgMS4xOS00LjI4M2wtLjAyLS4xNTIuMDkzLS4xMjNhMSAxIDAgMCAwIC4xNTEtLjkyIDEuMDA3IDEuMDA3IDAgMCAwLTEuMjY1LS42MzIgMS41MjYgMS41MjYgMCAwIDAtLjk3NSAxLjkyYy4wMTkuMDYuMzE1IDEuMTctLjg4NiAzLjE1NS0uODM0IDEuMzgzLTEuMTQ3IDMuMTQ4LTEuMTY2IDMuMzY3bC0uMDE3LjIxMWMtLjAxLjI3Ny0uMDA5LjUyMy0uMDA3Ljc1M2wuMDAxLjExOWEzIDMgMCAwIDEtLjAzNS42MTkgNiA2IDAgMCAxLS41NzMgMS42NDNjLS4xMDkuMTU1LS4xOTcuMjU2LS4yODkuMzYybC0uMDY3LjA3OGMtLjQ1NS41MjQtMS4wNzMgMS4yMzYtMS4yNjggMi4yMi0uMDU0LjI4LS4xMy43NDMtLjIyIDEuMzA0LS41MjcgMy4yNTgtLjg3NyA0Ljg1NS0xLjE3IDUuMzQtLjc0MiAxLjA2My0xLjY2NSAxLjI4OC0yLjMxIDEuMjkzLS45MS0uMDE0LTEuNzY3LS40Ny0yLjM1OC0xLjI1MWwtLjY4Ny0uOTA3IDEuMDkyLjMyMXEuMjQ5LjA3Mi41NTguMTc0YTEuNDcgMS40NyAwIDAgMCAxLjUyLS4zOGMxLjE0LTEuMTU0IDEuMDMtNC44MDcuNzc2LTUuNTQ2LS40ODItMS40MDctLjk0LTEuOTQtMS41NzYtMi42NzZhMjMgMjMgMCAwIDEtLjYwNy0uNzIzYy0uNDY5LS41NzItLjQ5NC0xLjI1Ny0uNTIzLTIuMDUxLS4wMTYtLjQ0OS0uMDMzLS45MDUtLjEzOC0xLjM0OWwtLjAyNi0uMTUyYTcuNSA3LjUgMCAwIDAtMS4wMDYtMi43NjljLTEuMDkzLTEuODA2LS45NDQtMi44OS0uOTAzLTMuMDkuMjgtLjg0Ny0uMTU2LTEuNzE3LS45NTktMS45ODVhLjk4Ljk4IDAgMCAwLS43NjIuMDUyIDEgMSAwIDAgMC0uMzUxIDEuNWwuMDkzLjEyMy0uMDIuMTUyYy0uMDkyLjcxMi0uMDYgMi4yMTUgMS4xOSA0LjI4Mi41MDIuODMuNjg1IDEuNjAyLjc1IDIuMTAzbC4wNC4yMTVjLjA2NS4yMzEuMDc5LjU5Mi4wOTMuOTc0LjAzNS45NzUuMDc4IDIuMTY4Ljk3IDMuMjU2LjIzNi4yOTQuNDQuNTMxLjYyNC43NDUuNTk4LjY5Mi44NjEuOTk4IDEuMjAzIDEuOTg3LjEzMi41ODMuMDg0IDIuMDUzLS4wODIgMi45bC0uMDc5LjM5OC0uMzktLjExYy0uNzEtLjE5OC0xLjI4NS0uMjk4LTEuNzU0LS4yOTgiLz48L3N2Zz4=" vertex="1" parent="1">
          <mxGeometry x="396" y="840" width="280" height="280" as="geometry" />
        </mxCell>
        <mxCell id="XSCT2WYPgkQ0aujzjNFR-4" value="" style="shape=image;verticalLabelPosition=bottom;verticalAlign=top;imageAspect=0;aspect=fixed;image=data:image/svg+xml,PHN2ZyB4bWxucz0iaHR0cDovL3d3dy53My5vcmcvMjAwMC9zdmciIHZpZXdCb3g9IjAgMCA2Mi4zNjE5OTk1MTE3MTg3NSA2Mi4zNjE5OTk1MTE3MTg3NSIgd2lkdGg9IjYyLjM2MTk5OTUxMTcxODc1IiBoZWlnaHQ9IjYyLjM2MTk5OTUxMTcxODc1Ij48cGF0aCBzdHlsZT0iZmlsbDojZGEyOTFjIiBkPSJNMzEuMzE1IDYyLjM2MkMxMy40ODMgNjIuMzYyIDAgNDcuNTkgMCAzMS4zMTUgMCAxMi42MzMgMTUuNTU3IDAgMzEuMDggMGMxOC42MDIgMCAzMS4yODIgMTUuMzQgMzEuMjgyIDMwLjk0NyAwIDE5LjA1LTE1LjY1NyAzMS40MTUtMzEuMDQ3IDMxLjQxNSIvPjxwYXRoIHN0eWxlPSJmaWxsOiNmZmYiIGQ9Ik00My4yODcgMTQuNzAyYy0uNDI2LS4wMjQtMS41MjQgMC0zLjM1NiAxLjI4My0uNDkuMzQzLTEuMjYxLjc1NS0xLjc2Ni45NjUtLjI2OS4wODUtLjgxNS4xMzMtMS45MTguMTc4LTEuNjU4LjA2Ni0zLjAwOC40Mi00LjI3MyAxLjExNi0zLjgxOCAyLjA5Ny02LjE0NCA3LjYxLTcuMTM4IDkuOTY0bC0uMjY1LjYxOWMtLjA5Ny4yMTctLjIzNC40MjUtLjU5My41MjItMy43OTYuMTQ4LTcuMzcgMS43OTItOS4xMTggMy4yNjEtLjEzLjExLS4yNDYuMjQtLjM2My4zNzZhMSAxIDAgMCAwLS4yMjQgMS4wMjQgMSAxIDAgMCAwIC43OTcuNjZjLjM3Mi4wNTUuNjgyLjA2NSAxLjA4LjA3My43NC4wMTMgMS43NTUuMDMyIDQuNDMuNjIybC4zODMuMDg1LS4xMDMuMzc5Yy0uNTk0IDIuMTk3LTMuMzU5IDcuNTYyLTUuMDMyIDguOTcyYTEgMSAwIDAgMC0uMTIgMS40MDkgMS4wMyAxLjAzIDAgMCAwIDEuNDA5LjEyYzIuMDc4LTEuNzUgNi4zNDktOS40NSA1LjgxLTExLjcwMS0uMTIxLS41MTItLjQ4LS44ODUtLjk1Ni0uOTk4YTUzIDUzIDAgMCAwLTIuNTg3LS41NWwtMS4zMDItLjIzNyAxLjIzNC0uNDhjMS4xMDQtLjQzIDIuODI3LS45NTUgNC43NjQtMS4wMDhhMSAxIDAgMCAwIC4xNi0uMDE3YzEtLjE5IDEuNzQ2LS43NzUgMi4xNTYtMS42OTFsLjI4My0uNjYzYy45MTItMi4xNiAzLjA0Ny03LjIyMyA2LjI2LTguOTg5Ljk5NC0uNTQ4IDIuMDMzLS44MTYgMy4zNjctLjg3IDEuMzQyLS4wNTMgMi4xMTMtLjExNyAyLjU5NS0uMzE3Ljc2Mi0uMzE2IDEuMzg2LS43NzkgMS45MzYtMS4xODYuNjU1LS40ODYgMS4xMzItLjc4NCAxLjQyLS44ODcuMjEzLS4wNjguMjk4LS4wNy40NTQtLjA0OC40NDQuMDYuNzUuNjU3LjI5MyAxLjE2OC0uMjk0LjMyNS0uNTU0LjU5NS0uODI0Ljg3NC0xLjA3NCAxLjExMS0yLjI5IDIuMzctMy4zNDMgMy45OS0uNzU1IDEuMzgyLS45NzQgMS42OS0xLjc4NSAyLjUxNy0uODYuODc5LS42MiAxLjk1Ny0uMzY3IDIuNjkyLjEzNi4zOTMuMzA2Ljc3OC40NzUgMS4xNjIuMzYyLjgyLjY3NSAxLjUzLjYgMi4yMTItLjAyMy4xNDMtLjA4NC4zODUtLjM3MiAxLjA2MWwtLjMxNy43NDgtLjM2NC0uNzI3Yy0uMTg1LS4zNzMtLjM3NC0uNjc3LS41My0uOTMzbC0uMDU3LS4wOWE0IDQgMCAwIDEtLjItLjM1IDEgMSAwIDAgMC0xLjMzLS40NzYgMS4wMDQgMS4wMDQgMCAwIDAtLjQ4IDEuMzMyYy4wODcuMTguMjA5LjM4Mi4zNTMuNjE2LjQ2My43NDkgMS4wOTYgMS43NzIgMS4wOTQgMy44MTQgMCAuMzc4LjIyLjczLjU2Ljg5Ny4zNDcuMTcuNzUuMTI3IDEuMDU0LS4xMDYuNDUtLjM1NSAyLjQ2Ny00LjU2MiAyLjU3Ni01LjU1NS4xMzQtMS4yMjYtLjMzOC0yLjI5Ny0uNzU0LTMuMjQzYTE0IDE0IDAgMCAxLS40MTctMS4wMTVjLS4wNy0uMi0uMS0uMzI2LS4xMTItLjRsLS4wMzMtLjE4Ny4xMzMtLjEzN2MuOTE2LS45NDUgMS4yNDctMS40NDcgMS45ODgtMi44MDUuOTA3LTEuMzk1IDIuMDA1LTIuNTMgMy4wNjgtMy42MjhsLjExNC0uMTE5cS4zOTYtLjQxLjc2My0uODAxYy40NDQtLjQ4Ljk3Ny0xLjQ3Ni43NjUtMi42MTctLjA1OC0uMzE2LS4yMTUtMS43My0xLjk3NS0xLjg4Ii8+PHBhdGggc3R5bGU9ImZpbGw6I2ZmZiIgZD0iTTMxLjk0MyAzNS4wMjZhMSAxIDAgMCAwLS44NTIuNDc2Yy0uMTg2LjI5Ni00LjU2IDcuMjctOS4wNDUgMTAuMzQ4YTEgMSAwIDAgMC0uNDE4LjY0IDEgMSAwIDAgMCAuMTU4Ljc0OGMuMy40NDEuOTUxLjU2MiAxLjM5LjI2IDQuOS0zLjM2MiA5LjQyNS0xMC42MzcgOS42MTYtMTAuOTQ2YTEuMDAyIDEuMDAyIDAgMCAwLS44NS0xLjUyNloiLz48L3N2Zz4=" vertex="1" parent="1">
          <mxGeometry x="986" y="840" width="280" height="280" as="geometry" />
        </mxCell>
        <mxCell id="XSCT2WYPgkQ0aujzjNFR-5" value="" style="shape=image;verticalLabelPosition=bottom;verticalAlign=top;imageAspect=0;aspect=fixed;image=data:image/svg+xml,PHN2ZyB4bWxucz0iaHR0cDovL3d3dy53My5vcmcvMjAwMC9zdmciIHZpZXdCb3g9IjAgMC4wMDIwMDAwMDAwOTQ5OTQ5MDI2IDYyLjM2MTk5OTUxMTcxODc1IDYyLjM2MjAwMzMyNjQxNjAxNiIgd2lkdGg9IjYyLjM2MTk5OTUxMTcxODc1IiBoZWlnaHQ9IjYyLjM2MjAwMzMyNjQxNjAxNiI+PHBhdGggc3R5bGU9ImZpbGw6I2RhMjkxYyIgZD0iTTMxLjMxNSA2Mi4zNjRDMTMuNDgzIDYyLjM2NCAwIDQ3LjU5MiAwIDMxLjMxNiAwIDEyLjYzNSAxNS41NTcuMDAyIDMxLjA4LjAwMmMxOC42MDIgMCAzMS4yODIgMTUuMzQgMzEuMjgyIDMwLjk0NyAwIDE5LjA1LTE1LjY1NyAzMS40MTUtMzEuMDQ3IDMxLjQxNSIvPjxwYXRoIHN0eWxlPSJmaWxsOiNmZmYiIGQ9Ik0yNC44NjMgMzYuNjYzcTEuMDU5IDAgMS45My40OThjLjIwOC4xMjEuMzk0LjMwNC41ODIuNDk2bC4yNzEuMjc4LS4yODYuMjYxYy0uNzEzLjY1LTEuMjAzIDEuMzU2LTEuNDk4IDIuMTU2LS40NiAxLjI0Ny0uMzEzIDIuNi4zOTMgMy42MTkuNjk0IDEuMDAyIDEuODU1IDEuNTgyIDMuMTg2IDEuNTkyaC4wMTNjLjYwNiAwIDEuMDQ1LS4zNSAxLjA5My0uODcuMDUxLS41NTQtLjMwMy0uOTY4LS45MjQtMS4wODJsLS4zMS0uMDUxYy0uMjQxLS4wMzctLjQ5NC0uMDc1LS43MS0uMTYxLS44Ny0uMzU2LTEuMjExLTEuMTA5LS45NjItMi4xMjEuMjA0LS44MjguNzExLTEuNDg3IDEuNTUtMi4wMTQgMS4zODUtLjg3IDIuMjY0LTEuODk5IDIuNjktMy4xNDZhNy4xIDcuMSAwIDAgMCAuMjkzLTMuMzM5IDkgOSAwIDAgMC0uMjE3LS45N2MtLjE1LS41NjEtLjY2NS0uOTEyLTEuMTc2LS43OTNhLjk4Ljk4IDAgMCAwLS42MjIuNDQ2IDEuMSAxLjEgMCAwIDAtLjEwNy44NDJjLjI1OC45OTIuMjg2IDEuODk3LjA4NiAyLjc2N2EzLjUgMy41IDAgMCAxLS41OCAxLjI5OGwtLjI4My4zOS0uMzA4LS4zNjhhNC41IDQuNSAwIDAgMC0xLjc3Ni0xLjI4MWwtLjQ0OC0uMTgxLjI4Ni0uMzg5Yy4yLS4yNzIuNDA4LS41Ny41NzctLjg5Ni43MzItMS40MjIuNDMtMi45NTctLjc3Mi0zLjkxMi0uNTI1LS40MTYtMS4xNi0uNjktMS45OTgtLjg2LTEuNy0uMzQ4LTMuMDcxLS45NjUtNC4xOS0xLjg4OS0xLjUwMy0xLjI0LTIuMTQ4LTIuNzY5LTEuOTctNC42Ny4yLTIuMTU1IDEuNTE4LTMuOTA2IDMuNTI2LTQuNjgzIDEuODYyLS43MjIgNC40NjctLjM5MiA2LjEuMjIgMS4xLjQxIDIuMDYyIDEuMzM4IDMuMDMyIDIuMzMzLjMxNS4zMjMgMS4wMDUgMS4xMyAxLjYxNSAxLjg0MWwuMjA2LjI0Yy4zNi40MTkuNjc1Ljc4Ni44NTIuOTg0LjIxMS4yMzQuNDExLjM4Mi42MTQuNDU0LjQxNS4xNDYuODI1LS4wMDcgMS4wNy0uMzk4LjI0NC0uMzkxLjIxOC0uODI1LS4wNy0xLjE2MWwtLjQ1NC0uNTMzYy0uNzYtLjg5NS0yLjE3NC0yLjU2LTIuODA3LTMuMTk3LTEuMi0xLjIwOC0yLjU1NC0yLjA1MS00LjAyNi0yLjUwNy0xLjMwMS0uNDAyLTMuMjIzLS42MTItNC40NzItLjQ4OC0yLjk4NS4yOTctNS4zMTYgMS44NjMtNi41NjMgNC40MDktLjc0IDEuNTA5LS44NTUgMy4yMTctLjM0IDUuMDc3LjQ5MyAxLjc4IDEuNjYzIDMuMjE5IDMuNTc4IDQuMzk4IDEuMjk1LjggMi43NDMgMS4yMjggMy45ODkgMS41NDIuMzQuMDg2LjYzLjE4OC44OS4zMS41OC4yNzguNzU4Ljg3OC40NjQgMS41NjUtLjI2LjYwNi0uNjMxIDEuMDE1LTEuMTM3IDEuMjUtLjgxMy4zOC0xLjYzNi43NDctMi40NTggMS4xMTFsLS4zMDUuMTM3cS0uNjQ3LjI4Ni0xLjI5Mi41OGwtLjQyMy4xODhjLS44OTYuMzk3LTEuODE0LjgwNC0yLjUyNyAxLjU3NWEzLjgyIDMuODIgMCAwIDAtMS4wMDQgMi4xOTNjLS4xMiAxLjAwMS0uMDI4IDEuNzkyLjI4OSAyLjQ4OC42NjYgMS40NzcgMi4xMTkgMi4xODEgMy43MDggMS43ODQgMS4wODctLjI3IDEuODg2LS44MDYgMi4zNzEtMS41OS4yMzItLjM3NC4zMzEtLjgzMi40MDMtMS4yN2EuOTEuOTEgMCAwIDAtLjc1My0xLjA0OGMtLjUxNC0uMDk0LS45MTguMTc0LTEuMTUuNzQ0LS4xMS4yNzQtLjIxMy41My0uMzY1LjczOC0uMTc0LjIzNy0uNjU2LjQ1NS0xLjE0NS41Mi0uMzg0LjA0Ni0uNzA4LS4wMDMtLjg3MS0uMTM4YTEuMzggMS4zOCAwIDAgMS0uNTE5LS45MTJjLS4yMzMtMS41MjEuMjI3LTIuMzEzIDEuNzYtMy4wMjcgMS4xMS0uNTE2IDIuMDM3LS45MyAzLjAzNi0xLjE5MWE1LjQgNS40IDAgMCAxIDEuMzY1LS4xODhtMTMuMzI5IDUuNjY2YTIuMjcgMi4yNyAwIDAgMS0xLjQyNi0uNTg1Yy0uMjgzLS4yNTMtLjQxNy0uNTgtLjM2Ny0uODk0LjA0OC0uMzE0LjI3Ny0uNTgxLjYyNi0uNzMzLjQtLjE3OC43NzEtLjQxNC44LS45MzRhLjk4Ljk4IDAgMCAwLS4zODMtLjgzLjk3Ljk3IDAgMCAwLS45MDUtLjE1NWMtMS4xMDYuMzYtMS44MSAxLjEyLTIuMDM2IDIuMTk3LS4yMTIgMS4wMS4wODYgMS45MzMuODg3IDIuNzQ2LjU1Ni41NjMgMS4yOTIuOTQgMi4xMjcgMS4wOS4yMjIuMDM5LTEuMTA0LS4wNzEuNjc3LjA1NCAyLjExNi4xNSA3LjMyNy0yLjM4MyA0LjYwNi03LjUwNS0uMzUzLS42NjUtLjYyMi0uODg3LS45MS0xLjE4MS0uNTAzLS41MTctMS4wNzUtLjk2OC0xLjYyOC0xLjQwNGwtLjE0LS4xMXEtLjI0NC0uMTk0LS40ODQtLjM5Yy0uMjM2LS4xOTYtLjQ5LS4zNy0uNzM0LS41MzlsLS4xODMtLjEyNC4wMi0uMjJjLjE2Mi0xLjc1IDEuNjk1LTMuMzY3IDMuNDE3LTMuNjA0Ljg5LS4xMjEgMS43NTMtLjQwMSAyLjU5LS42NzJsLjIwNC0uMDY1YzEuMTg4LS4zODIgMi4zMS0uMjg0IDMuMzM3LjI5MS44MTcuNDU3IDEuMTc3IDEuMjUxIDEuMTAyIDIuNDMtLjA4MyAxLjMxOS0uODg0IDIuNDg0LTEuOTQ2IDIuODMzLS43OTguMjY4LTEuNjI3LjEyLTIuNC0uNDI0LS4zNjctLjI1NC0uNDY5LS42ODUtLjMxMS0xLjMxNi4wMzQtLjEwMS4wNTgtLjE3Mi4wNzItLjI0My4xMDItLjQ5MS0uMTUtLjk2Ni0uNTk4LTEuMTM2LS40NDItLjE3Mi0uOTQuMDIyLTEuMTkuNDU3LS4zNjcuNjM0LS40NTYgMS40NDMtLjI0NCAyLjIyMi4yMTMuNzg0LjcxIDEuNDQ2IDEuMzY0IDEuODE4IDEuNDM0LjgxIDIuODQ0Ljk0MiA0LjE5NC4zOTYgMS4xOTgtLjQ5IDIuMDg4LTEuNDM0IDIuNjQ1LTIuODA5LjUwNy0xLjI1LjU0OC0yLjQ5OS4xMjItMy43MTItLjQ1NS0xLjI5NS0xLjQwMy0yLjE5NC0yLjgxNy0yLjY3NC0xLjQ0Ny0uNDg4LTIuOTQ2LS40MDctNC43Mi4yNTdxLS44OTUuMzM4LTEuNTk1LjMyYy0xLjIwOS0uMDMtMi4yMzktLjU5LTMuMDU4LTEuNjY1bC0uMDkzLS4xMjdhMyAzIDAgMCAwLS4xOTYtLjI1NmMtLjM1OC0uMzk3LS44NjktLjQ1Ni0xLjMtLjE2LS40NC4zMDQtLjU0OS44MzUtLjI2NiAxLjI5LjQ4Ni43OCAxLjA0OCAxLjM4NCAxLjcxNyAxLjg0NGwuMzg3LjI2Ni0uMzQ0LjMxOGE2LjUgNi41IDAgMCAwLTEuNjQ3IDIuMzdsLS4yMjMuNTUtLjQtLjQzOWMtLjE0Ni0uMTY1LS4yMjgtLjI3Ny0uMzExLS4zOWE5IDkgMCAwIDAtLjI1NC0uMzQxYy0uMzgzLS40ODEtLjkyNy0uNTc4LTEuMzgtLjI0NS0uNDE3LjMwNS0uNTEuODc1LS4yMjQgMS4zNTkuNTEuODU1IDEuMjQgMS42MzUgMi4yMzIgMi4zODQuNDM0LjMyOS44NzcuNjQ2IDEuMzIuOTY1bC4xNi4xMTVjLjU0Ni4zOSAxLjA5Mi43ODMgMS42MjMgMS4xOS40MTguMzE5LjY0LjM1NCAxLjA5LjkxOS40MjUuNTMyIDIuMjc3IDQuNDczLTIuNjA2IDUuMiIvPjwvc3ZnPg==" vertex="1" parent="1">
          <mxGeometry x="986" y="1230" width="280" height="280" as="geometry" />
        </mxCell>
        <mxCell id="XSCT2WYPgkQ0aujzjNFR-6" value="" style="shape=image;verticalLabelPosition=bottom;verticalAlign=top;imageAspect=0;aspect=fixed;image=data:image/svg+xml,PHN2ZyB4bWxucz0iaHR0cDovL3d3dy53My5vcmcvMjAwMC9zdmciIHZpZXdCb3g9IjAgMC4wMDIwMDAwMDAwOTQ5OTQ5MDI2IDYyLjM2MTk5OTUxMTcxODc1IDYyLjM2MjAwMzMyNjQxNjAxNiIgd2lkdGg9IjYyLjM2MTk5OTUxMTcxODc1IiBoZWlnaHQ9IjYyLjM2MjAwMzMyNjQxNjAxNiI+PHBhdGggc3R5bGU9ImZpbGw6I2RhMjkxYyIgZD0iTTMxLjMxNSA2Mi4zNjRDMTMuNDgzIDYyLjM2NCAwIDQ3LjU5MiAwIDMxLjMxNiAwIDEyLjYzNSAxNS41NTcuMDAyIDMxLjA4LjAwMmMxOC42MDIgMCAzMS4yODIgMTUuMzQgMzEuMjgyIDMwLjk0NyAwIDE5LjA1LTE1LjY1NyAzMS40MTUtMzEuMDQ3IDMxLjQxNSIvPjxwYXRoIHN0eWxlPSJmaWxsOiNmZmYiIGQ9Ik0yMy4yNDYgMzYuNmMtLjE2Ni4yNzItLjIzNy44OTUtLjA3MiAxLjI4NiAxLjMxNyAzLjExMSAyLjcyIDYuMjM0IDQuMDc4IDkuMjU0LjE2My4zNjEuNTc2Ljc4IDEuMjM0LjU0Ny41MDItLjE4LjY5Mi0uNTU4LjU4MS0xLjE1NmEyLjQgMi40IDAgMCAwLS4xODctLjUxOGwtMS4xNDQtMi41N3EtLjgwNi0xLjgwNy0xLjYwOS0zLjYyMWExMiAxMiAwIDAgMS0uMjktLjc1bC0uMDQzLS4xMTZhLjUyLjUyIDAgMCAxIC4wNDItLjM5NC40NS40NSAwIDAgMSAuMzI3LS4yMDZjMi40MjktLjI5MiA0LjMxNi0xLjM3IDUuNzctMy4yOTMuMTY1LS4yMjIuNTI3LS4zMjEuNzM1LS4zMDQgMi4zMTcuNDA0IDQuMjY0LjE0IDUuOTg5LS44bC4wMTItLjAwNC4wMTctLjAxLjAwMi4wMDRjLjE4My0uMDYuNC4wMTUuNDguMTg5YS40LjQgMCAwIDEgLjA0LjE0N2guMDJhLjQuNCAwIDAgMS0uMDM1LjE1NmwtLjM3OS44NDRhMzUgMzUgMCAwIDEtLjg5NiAxLjkyYy0uNTA1Ljk4Mi0uMTQ2IDEuMzQuMTY4IDEuNTIzLjcxLjQxNCAxLjIyOC0uMTMxIDEuNDc2LS40OTIgMS40Ny0yLjE0IDIuMDE5LTQuMTUzIDEuNzI1LTYuMzQtLjA2Ny0uNDk2LS41MzYtMS4xNjEtMS4wNjMtMS4zMDctLjQ2NC0uMTIzLS44MzkuMDI1LTEuMTg1LjQ3YTQgNCAwIDAgMS0uNDg0LjUyNWMtMS4zNjcgMS4yMTQtMy4wMjUgMS42NjctNC45MyAxLjM1My0uMTczLS4wMy0uMzYyLS4yNDMtLjM3Mi0uNDE4cS0uMDMxLS41NDctLjA1OC0xLjA3NWMtLjA0NS0uODgzLS4wOTYtMS44ODYtLjE5OC0yLjg0N0EuODQuODQgMCAwIDAgMzIuNjggMjhhLjc0Ljc0IDAgMCAwLS41OTItLjEyN3EtLjYzMi4xMTMtLjg2NC40NjhjLS4xNzcuMjctLjExLjU2Ni0uMDQxLjg4bC4wMy4xNDJjLjM5NSAxLjk3NC0uMTkzIDMuOTUtMS41NjQgNS4zMzgtMS4zNzEgMS4zOS0zLjI1MiAxLjk4My01LjE1OCAxLjYyOC0uMDg5LS4wMTYtLjkxNi0uMjctMS4yNDUuMjd6TTkuMjE1IDMyLjE3NmMtLjMyIDAtLjU4NS4xNjItLjc3LjQ4LS4zNzIuNjQtLjAyNyAxLjA2Mi4zMjcgMS4zMDMgMy4zNzQgMi4yODcgNi41MDUgMi4xMjcgOS4wNzMtLjQ3OC44My0uODQzIDEuNTcyLTEuNzk0IDIuMjg4LTIuNzEzcS4zOS0uNTAxLjc4Ni0uOTk1YS41LjUgMCAwIDEgLjMzNy0uMTYyYy4yNjUuMDIyLjM2My4xODYuMzk0LjI1Ni4xMTUuMjUuMjQyLjUyNi4zODMuNzk2LjIyNS40MzUuNTE0LjcxNC44MzQuODEuMjQuMDcuNTAzLjAzMy43NTktLjExLjY0Ny0uMzY2LjQzMS0xLjA3My4xMzYtMS42MDItLjg2OC0xLjU2MS0xLjAyNi0zLjEyMy0uNDY4LTQuNjQuNzE0LTEuOTQ0IDIuMzg3LTMuMzg1IDQuNDc1LTMuODU0IDIuMTA1LS40NzQgNC4yNTUuMTIxIDUuNzQ4IDEuNTkyLjE5Ni4xOTIuMzg2LjM5My41NzYuNTk0bC4wNjguMDcycS4yNDEuMjYuNDg4LjUxMWMxLjI3MyAxLjI4OSAyLjkxIDIuMDA1IDQuNDI1IDEuOTEgMS40MjUtLjA5IDIuNzAyLS44NjMgMy43OTgtMi4yOTVxLjExNC0uMTUxLjIyNi0uMzA4Yy4xOTctLjI3LjM5OS0uNTQ4LjY0Mi0uNzg4LjQ2Mi0uNDU4IDEuMTU2LTEuMTQ3IDIuMDQ0LS42ODcuODUyLjQzOSAxLjY5NC45NTQgMi40MzYgMS40MDhsLjIzOC4xNDVjLjQxLjIxNS43OTMuNDUuNzI0LjgyOS4wMDYuMzI3LS41NDkuNDgyLS45NjYuNTY0bC0uMTczLjA0NGMtMSAuMjQ1LTEuOTk4LjQ5MS0yLjk3Mi43NjItLjUwMi4xNC0uODI4LjMxMS0uOTcuNTExLS41Ni43ODktMS4wMTcgMS42Ni0xLjQwMiAyLjQxNS0uMi4zOTUtLjMxNy45NDcuMjcgMS4zMzcuNTIzLjM0NS45ODYuMjU0IDEuMzgtLjI3Mi4zNjQtLjQ5LjY0LS45MzEuODQ0LTEuMzQ4LjI4LS41NzMuNjc2LS44ODQgMS4yODUtMS4wMDkuODA1LS4xNjQgMS42MTUtLjM4MiAyLjM5OS0uNTkzbC42NjgtLjE3OGMuOTA2LS4yNCAxLjQ2LS44MjcgMS42NDgtMS43NDguMjAyLS45ODgtLjIyMy0xLjk5Ny0xLjA4NS0yLjU3MmEzNyAzNyAwIDAgMC0zLjUyLTIuMDg2Yy0uODUtLjQzOC0uNzQtMS4wMi0uNTQ3LTEuNDguMTA0LS4yNDkuNDEzLS44NzYuNTc3LTEuMTE4YTEuMTYgMS4xNiAwIDAgMCAuMDYtLjg3My44NC44NCAwIDAgMC0uNDUtLjUxNmMtLjQ4LS4xOTUtMS4wMDcuMDU2LTEuMzQ5LjY2Ny0uMjkyLjUyNC0uNTMgMS4wNzgtLjgwNiAxLjcxOC0uMTYuMzcyLS4yOTEuNjc4LS40NCAxLjAxLS42MyAxLjU1OC0yLjE4OSAzLjA5LTIuODU1IDMuNzQzLS42ODQuNjcyLTIuMDczIDEuMDU1LTIuOTE2LjU1OS0uODYxLS41MDYtMS43NTgtMS4wNjQtMi40MS0xLjgyLTEuNDc1LTEuNzEzLTMuNTYzLTIuNy01Ljg4LTIuNzc4LTIuNDA2LS4wODMtNC43Ny44MjYtNi4zMjIgMi40LS45Mi45MzEtMS40OCAyLjA5NS0yLjAyMiAzLjIyLS4xNjguMzQ3LS4zMDIuNjI1LS40NDMuOTAxLTEuMzA1IDIuNTU4LTIuNTQ1IDQuODIyLTQuNTEgNi42MTQtMS42NiAxLjUxOC0zLjM1OSAxLjcyOC01LjM0Ny42NTdhOSA5IDAgMCAxLS40OS0uMjljLS4yMjEtLjEzNS0uNDQ3LS4yNzYtLjY4Ny0uMzg1cS0uMjg4LS4xMy0uNTM2LS4xMyIvPjwvc3ZnPg==" vertex="1" parent="1">
          <mxGeometry x="390" y="1230" width="280" height="280" as="geometry" />
        </mxCell>
        <mxCell id="XSCT2WYPgkQ0aujzjNFR-7" value="" style="shape=image;verticalLabelPosition=bottom;verticalAlign=top;imageAspect=0;aspect=fixed;image=data:image/svg+xml,PHN2ZyB4bWxucz0iaHR0cDovL3d3dy53My5vcmcvMjAwMC9zdmciIHZpZXdCb3g9IjAgMC4wMDIwMDAwMDAwOTQ5OTQ5MDI2IDYyLjM2MTk5OTUxMTcxODc1IDYyLjM2MjAwMzMyNjQxNjAxNiIgd2lkdGg9IjYyLjM2MTk5OTUxMTcxODc1IiBoZWlnaHQ9IjYyLjM2MjAwMzMyNjQxNjAxNiI+PHBhdGggc3R5bGU9ImZpbGw6I2RhMjkxYyIgZD0iTTMxLjMxNSA2Mi4zNjRDMTMuNDgzIDYyLjM2NCAwIDQ3LjU5MiAwIDMxLjMxNiAwIDEyLjYzNSAxNS41NTcuMDAyIDMxLjA4LjAwMmMxOC42MDIgMCAzMS4yODIgMTUuMzQgMzEuMjgyIDMwLjk0NyAwIDE5LjA1LTE1LjY1NyAzMS40MTUtMzEuMDQ3IDMxLjQxNSIvPjxwYXRoIHN0eWxlPSJmaWxsOiNmZmYiIGQ9Ik0yNi4zOSAxNi45NzlxLS41NjEgMC0uOTk0LjM2Yy0xLjIzMyAxLjAzMS0uNTk5IDMuNjQ0IDEuMDAyIDguMTA1LjExLjMwNS4xOS41My4yNDQuNjg5LjAyNS4wNzQuMDcyLjE0OS4xMjEuMjI1bC4xMTMuMTczLS4wODYuMTg4Yy00LjM3MiA5LjU3NC0xMC44MjQgMTcuOTE0LTEwLjg4OCAxNy45OTZhMSAxIDAgMCAwLS4yMDIuNzM3IDEgMSAwIDAgMCAuMzc5LjY2NWMuNDI2LjMzIDEuMDc1LjI0NyAxLjQwNC0uMTc1YTg3IDg3IDAgMCAwIDIuNTg1LTMuNTcxbC40OTYtLjcxOC4xOC44NTRjLjE4Ny44OS4yNzYgMS43ODUuMjcyIDIuNzM5LS4wMDIuNTUuNDQ0IDEuMDAyLjk5NSAxLjAwNS41NTMgMCAxLjAwMi0uNDQ3IDEuMDA1LS45OTUuMDE0LTIuOTItLjc2Ny00Ljg0NS0xLjAyMy01LjQ3OGwtLjA3My0uMTguMTA2LS4xNjRhMTA3IDEwNyAwIDAgMCAyLjUyLTQuMDkzbC4xMDgtLjE4NWguMjIxYzEuNiAwIDQuMzc0LS40MSA1LjUxMi0zLjE0M2ExIDEgMCAwIDAgLjAwMi0uNzY1IDEgMSAwIDAgMC0uNTQtLjU0Mi45OTQuOTk0IDAgMCAwLTEuMzA4LjUzOGMtLjMyNi43ODMtLjk1NyAxLjMzNy0xLjg3MyAxLjY0N2wtLjkwMi4zMDUuNDUxLS44MzhhNzkgNzkgMCAwIDAgMi45NTctNi4wNTlsLjA4NC0uMzI0Yy0uMDAyIDAgLjI5LTEuOTU0IDIuMDg2LTQuMTU4IDEuOTEzLTIuMzQ4IDIuNDYtMi41MDcgNC40OTQtMS4zMTIgMS42OC45ODQgMy4wNzkuODY4IDQuMi43NzMuOTMzLS4wOCAxLjczNy0uMTQ3IDIuNzMuMzMuNTIzLjM1Ljg3IDEuNTU4IDEuMzA3IDMuNTM5LjM1MiAxLjU3NC42NTIgMi45MjEgMS4zMzEgMy43MDYuMzcuNDI2Ljg0Mi45MiAxLjMzIDEuNDMgMS4yNDggMS4zIDEuOTk4IDIuMTEyIDIuMTQ2IDIuNDEybC4wNDYuMDkyLS4wMDguMTAzYy0uMDE2LjIwNC0uMTkyLjU0OS0uNDkuNzg1LS4yMjQuMTczLS40MjMuMjQzLS42MDkuMjEtLjI2Ny0uMDY3LS42MDMtLjMyOS0xLjIyLS44NTYtLjg4MS0uNzUtMi4wODYtMS43NzYtMy42ODUtMS45MDUtMS4wNDgtLjA4My0xLjkwOC0uNjMtMi44Mi0xLjIxLTEuMzI0LS44NDItMy4xMjgtMS45OS01LjA3My0uMjU2LS4yLjE3Ny0uMzE4LjQyMy0uMzMyLjY5cy4wNzQuNTIzLjI1Mi43MjFjLjE3OC4yLjQyNC4zMTkuNjkuMzM0LjI1NC4wMTcuNTIzLS4wNzUuNzIyLS4yNTIuNzQtLjY2MyAxLjE2Ni0uNTA1IDIuNjY0LjQ0OC45NzYuNjIxIDIuMTkyIDEuMzk1IDMuNzM4IDEuNTIuOTUuMDc0IDEuNzU4Ljc2MSAyLjU0IDEuNDI2LjY5NS41OTMgMS40MDUgMS4yIDIuMjQ0IDEuMzIuODkxLjEyOSAxLjc5Ny0uMjE4IDIuNDktLjk1Mi42ODQtLjcyMyAxLjAxLTEuNjYzLjg1MS0yLjQ1My0uMTc4LS44OS0xLjE0MS0xLjkzMy0yLjctMy41NmwtLjA3OC0uMDgxYy0uNDM1LS40NTYtLjg1Ni0uODk1LTEuMTg2LTEuMjc3LS4yOTYtLjM0My0uNTQyLTEuMjYtLjg5LTIuODMtLjQ2LTIuMDY2LS45MzQtNC4yMDMtMi4zOC00LjktMS40OTItLjcxOS0yLjc1Ny0uNjEzLTMuNzc0LS41MjctLjQyOC4wMzYtLjg4LjA2OC0xLjMzMi4wMzRsLS4yNTctLjAxOS0xLjU5MS01LjM1YS45OS45OSAwIDAgMC0xLjI0NS0uNjczIDEgMSAwIDAgMC0uNjczIDEuMjQ0bDEuMzI3IDQuNDY0LTQuNTgzLTUuNTRhMS4wMDMgMS4wMDMgMCAwIDAtMS40MDgtLjEzMiAxIDEgMCAwIDAtLjEzMyAxLjQwOGwyLjcxOSAzLjI4Ni0uMzk4LjIxOGMtLjQwMi4yMi0uODIuNTQzLTEuMjguOTg3bC0uMjQuMjMxLS4yNTctLjIxYy0uNjQ3LS41My0xLjU0LTEuMTItMi43My0xLjgwN3EtLjc3Ni0uNDQ3LTEuNDAyLS40NDd6bTEuNDkgNi42NjMtLjI3OC0uODU2Yy0uNDAzLTEuMjQtLjY2OC0yLjIxNi0uNzg4LTIuODk4bC0uMTQyLS44MS43MDUuNDI0Yy43NjQuNDYxIDEuMzc4Ljg3NSAxLjgyNCAxLjIzbC4yNzguMjIxLS4yMDYuMjlhMTMgMTMgMCAwIDAtLjk4MSAxLjZ6Ii8+PHBhdGggc3R5bGU9ImZpbGw6I2ZmZiIgZD0iTTI3LjI0NiAzOC4zMzVhMSAxIDAgMCAwLS44ODYuNTM0Yy0uNTY2IDEuMDc1LS42NjEgMi4yMDMtLjI3NSAzLjI2Ljg4NCAyLjQyMyAzLjkyIDMuNzEyIDQuMjYzIDMuODVsMS4xNC40NjQuMjIxLTEuMjA4Yy42NzktMy42OTcgMS44OTQtOS4yNjQgMi40MTEtMTAuMTAxbC4wNjEtLjA3NmMuMTk1LS4xODMuMzA2LS40MzEuMzEzLS42OThzLS4wOS0uNTItLjI3NC0uNzE0YTEgMSAwIDAgMC0uNjk4LS4zMTMgMS4wMyAxLjAzIDAgMCAwLS43MTUuMjc0Yy0uNDA0LjM4My0xLjI5MyAyLjEwOS0yLjcxIDkuMzhsLS4xMTEuNTczLS40NzUtLjM0Yy0uODEtLjU4LTEuMzMyLTEuMTgtMS41NDktMS43ODItLjE5LS41MjQtLjEzNi0xLjA2LjE2Ny0xLjYzN2ExIDEgMCAwIDAtLjg4My0xLjQ2NiIvPjwvc3ZnPg==" vertex="1" parent="1">
          <mxGeometry x="686" y="1410" width="280" height="280" as="geometry" />
        </mxCell>
        <mxCell id="XSCT2WYPgkQ0aujzjNFR-11" value="" style="shape=image;verticalLabelPosition=bottom;verticalAlign=top;imageAspect=0;aspect=fixed;image=data:image/svg+xml,PHN2ZyB4bWxucz0iaHR0cDovL3d3dy53My5vcmcvMjAwMC9zdmciIHZpZXdCb3g9IjAgMCA0MC41ODkyOTgyNDgyOTEwMTYgNDAuNTg5Mjk4MjQ4MjkxMDE2IiB2ZXJzaW9uPSIxLjEiIGlkPSJFYmVuZV8xIiB3aWR0aD0iNDAuNTg5Mjk4MjQ4MjkxMDE2IiBoZWlnaHQ9IjQwLjU4OTI5ODI0ODI5MTAxNiI+JiN4YTsgICYjeGE7ICA8ZGVmcz4mI3hhOyAgICA8c3R5bGU+JiN4YTsgICAgICAuc3QwIHsmI3hhOyAgICAgICAgZmlsbDogbm9uZTsmI3hhOyAgICAgIH0mI3hhOyAgICA8L3N0eWxlPiYjeGE7ICA8L2RlZnM+JiN4YTsgIDxnIGlkPSJFYmVuZV8zIj4mI3hhOyAgICA8cmVjdCBoZWlnaHQ9IjQwLjU4OTMiIHdpZHRoPSI0MC41ODkzIiB5PSIwIiBjbGFzcz0ic3QwIi8+JiN4YTsgIDwvZz4mI3hhOyAgPGcgaWQ9InBmZWlsZSI+JiN4YTsgICAgPHBhdGggZD0iTTE5Ljk3NTYsMi4zNTZDMTAuMDg0NSwyLjM1NiwyLjAzNzEsMTAuNDAzNCwyLjAzNzEsMjAuMjk1czguMDQ3NCwxNy45MzksMTcuOTM4NSwxNy45MzksMTcuOTM5NS04LjA0NzksMTcuOTM5NS0xNy45MzlTMjkuODY3MiwyLjM1NiwxOS45NzU2LDIuMzU2Wk0xOS45NzU2LDM2LjQ4NGMtOC45MjYzLDAtMTYuMTg4NS03LjI2MjctMTYuMTg4NS0xNi4xODlTMTEuMDQ5Myw0LjEwNiwxOS45NzU2LDQuMTA2czE2LjE4ODUsNy4yNjIyLDE2LjE4ODUsMTYuMTg5LTcuMjYxNywxNi4xODktMTYuMTg4NSwxNi4xODlaIi8+JiN4YTsgICAgPHBhdGggZD0iTTE5Ljk3NTYsMi4zNTZDMTAuMDg0NSwyLjM1NiwyLjAzNzEsMTAuNDAzNCwyLjAzNzEsMjAuMjk1czguMDQ3NCwxNy45MzksMTcuOTM4NSwxNy45MzksMTcuOTM5NS04LjA0NzksMTcuOTM5NS0xNy45MzlTMjkuODY3MiwyLjM1NiwxOS45NzU2LDIuMzU2Wk0xOS45NzU2LDM2LjQ4NGMtOC45MjYzLDAtMTYuMTg4NS03LjI2MjctMTYuMTg4NS0xNi4xODlTMTEuMDQ5Myw0LjEwNiwxOS45NzU2LDQuMTA2czE2LjE4ODUsNy4yNjIyLDE2LjE4ODUsMTYuMTg5LTcuMjYxNywxNi4xODktMTYuMTg4NSwxNi4xODlaIi8+JiN4YTsgICAgPHBhdGggZD0iTTIzLjM0NzQsMjIuNjEyM2w0LjQ1MDgsNC40NTA5LjQzMDcuNDMwNy0uMDAzOS0uNjA5MS0uMDI2MS00LjA1MzEsMS40NjU5LDEuNDU4NS0uMDA5NCw1LjY3NzEtNS42ODY4LjAxODgtMS40NTgzLTEuNDY1OCw0LjA1MzEuMDI2MS42MDkxLjAwMzktLjQzMDctLjQzMDctNC40NTA5LTQuNDUwOCwxLjA1NjUtMS4wNTY1Ii8+JiN4YTsgICAgPHBhdGggZD0iTTE1Ljk4MjksMTAuNjAzM2wxLjQ1ODMsMS40NjU4LTQuMDUzMS0uMDI2MS0uNjA5MS0uMDAzOS40MzA3LjQzMDcsNC40NTg4LDQuNDU4OC0xLjA1NjQsMS4wNTY0LTQuNDU4OC00LjQ1ODgtLjQzMDctLjQzMDcuMDAzOS42MDkxLjAyNjEsNC4wNTMxLTEuNDY1OS0xLjQ1ODUuMDA5NC01LjY3NzEsNS42ODY4LS4wMTg4Ii8+JiN4YTsgICAgPHBhdGggZD0iTTI4LjQ3NDksMTAuNzI2OWwxLjA2NjEsMS4wNjYxLTQuNDYyNCw0LjQ1MjktLjQzMDUuNDI5Ni42MDgyLS4wMDI2LDQuMDUwNC0uMDE3NC0xLjQ2NDYsMS40NTcyLTUuNjc3OC0uMDA5NC0uMDE4OC01LjY3NzIsMS40NjctMS40NjctLjAxNzQsNC4wNTI4LS4wMDI2LjYwODEuNDI5Ni0uNDMwNSw0LjQ1My00LjQ2MjUiLz4mI3hhOyAgICA8cGF0aCBkPSJNMTIuMTA5NywyMi40NjY4bDUuNjY3Ni4wMTg4LjAxODgsNS42Nzc2LTEuNDY1NywxLjQ2NTcuMDI2MS00LjA1MDkuMDAzOS0uNjA5MS0uNDMwNy40MzA3LTQuNDUzNCw0LjQ1MzUtMS4wNTc2LTEuMDY1MSw0LjQ1NDQtNC40NDQ2LjQzMDUtLjQyOTYtLjYwODIuMDAyNi00LjA1MjguMDE3NCwxLjQ2Ny0xLjQ2NyIvPiYjeGE7ICA8L2c+JiN4YTs8L3N2Zz4=;flipH=1;" vertex="1" parent="1">
          <mxGeometry x="686" y="330" width="280" height="280" as="geometry" />
        </mxCell>
        <mxCell id="XSCT2WYPgkQ0aujzjNFR-12" value="" style="shape=image;verticalLabelPosition=bottom;verticalAlign=top;imageAspect=0;aspect=fixed;image=data:image/svg+xml,PHN2ZyB4bWxucz0iaHR0cDovL3d3dy53My5vcmcvMjAwMC9zdmciIHZpZXdCb3g9IjAgLTAuMDAwMTk5OTk5OTk0OTQ3NTc1MDMgNDAuNTg5Mjk4MjQ4MjkxMDE2IDQwLjU4OTI5ODI0ODI5MTAxNiIgdmVyc2lvbj0iMS4xIiBpZD0iRWJlbmVfMSIgd2lkdGg9IjQwLjU4OTI5ODI0ODI5MTAxNiIgaGVpZ2h0PSI0MC41ODkyOTgyNDgyOTEwMTYiPiYjeGE7ICAmI3hhOyAgPGRlZnM+JiN4YTsgICAgPHN0eWxlPiYjeGE7ICAgICAgLnN0MCB7JiN4YTsgICAgICAgIGZpbGw6IG5vbmU7JiN4YTsgICAgICB9JiN4YTsgICAgPC9zdHlsZT4mI3hhOyAgPC9kZWZzPiYjeGE7ICA8ZyBpZD0iRWJlbmVfMyI+JiN4YTsgICAgPHJlY3QgaGVpZ2h0PSI0MC41ODkzIiB3aWR0aD0iNDAuNTg5MyIgeT0iLS4wMDAyIiBjbGFzcz0ic3QwIi8+JiN4YTsgIDwvZz4mI3hhOyAgPGcgaWQ9InBmZWlsZSI+JiN4YTsgICAgPHBhdGggZD0iTTM0LjQ2NjEsMy45NTU4YzEuMTk0OSwwLDIuMTY3Ljk3MjEsMi4xNjcsMi4xNjd2MjguMzQzM2MwLDEuMTk0OS0uOTcyMiwyLjE2Ny0yLjE2NzEsMi4xNjdINi4xMjI4Yy0xLjE5NDYsMC0yLjE2NjUtLjk3MjEtMi4xNjY1LTIuMTY3VjYuMTIyOGMwLTEuMTk0OS45NzE5LTIuMTY3LDIuMTY2NS0yLjE2N2gyOC4zNDMzTTYuNjk4NCwzNS4xMzNoMjcuMTkyNWMuNjg0OSwwLDEuMjQyMS0uNTU3MiwxLjI0MjEtMS4yNDIxVjYuNzAxNWMwLS42ODY5LS41NTg4LTEuMjQ1Ny0xLjI0NTctMS4yNDU3SDYuNjk4NGMtLjY4NDksMC0xLjI0MjEuNTU3Mi0xLjI0MjEsMS4yNDIxdjI3LjE5M2MwLC42ODQ5LjU1NzIsMS4yNDIxLDEuMjQyMSwxLjI0MjEiLz4mI3hhOyAgICA8cGF0aCBkPSJNMTIuMTYwNiwxMy4zNDM3bDIuMDY3Ny4wMDUzLTIuODg0NSwyLjg0NzUtLjQzMzUuNDI3OWg2LjkxNDh2MS40OTRoLTYuOTE0OGwuNDMzNC40Mjc5LDIuODg0NCwyLjg0NzYtMi4wNjc4LjAwNTItNC4wMDc3LTQuMDIwOSw0LjAwNzktNC4wMzQ1Ii8+JiN4YTsgICAgPHBhdGggZD0iTTEyLjE2MDYsMjQuNDQyNmwyLjA2NzcuMDA1My0yLjg4NDUsMi44NDc1LS40MzM1LjQyNzloNi45MTQ4djEuNDk0aC02LjkxNDhsLjQzMzQuNDI3OSwyLjg4NDQsMi44NDc2LTIuMDY3OC4wMDUyLTQuMDA3Ny00LjAyMDksNC4wMDc5LTQuMDM0NSIvPiYjeGE7ICAgIDxwYXRoIGQ9Ik0yOC40MzQ2LDE5LjE2MjdsNC4wMDc3LDQuMDIwOS00LjAwNzksNC4wMzQ1LTIuMDY3Ny0uMDA1MywyLjg4NDUtMi44NDc1LjQzMzUtLjQyNzloLTYuOTE0OHYtMS40OTRoNi45MTQ4bC0uNDMzNC0uNDI3OS0yLjg4NDQtMi44NDc2LDIuMDY3OC0uMDA1MiIvPiYjeGE7ICAgIDxwYXRoIGQ9Ik0yOC40MzQ2LDguMDYzN2w0LjAwNzcsNC4wMjA5LTQuMDA3OSw0LjAzNDUtMi4wNjc3LS4wMDUzLDIuODg0NS0yLjg0NzUuNDMzNS0uNDI3OWgtNi45MTQ4di0xLjQ5NGg2LjkxNDhsLS40MzM0LS40Mjc5LTIuODg0NC0yLjg0NzYsMi4wNjc4LS4wMDUyIi8+JiN4YTsgIDwvZz4mI3hhOzwvc3ZnPg==" vertex="1" parent="1">
          <mxGeometry x="80" y="1020" width="280" height="280" as="geometry" />
        </mxCell>
        <mxCell id="XSCT2WYPgkQ0aujzjNFR-13" value="" style="shape=image;verticalLabelPosition=bottom;verticalAlign=top;imageAspect=0;aspect=fixed;image=data:image/svg+xml,PHN2ZyB4bWxucz0iaHR0cDovL3d3dy53My5vcmcvMjAwMC9zdmciIHZpZXdCb3g9IjAgLTAuMDAwMTk5OTk5OTk0OTQ3NTc1MDMgNDAuNTg5Mjk4MjQ4MjkxMDE2IDQwLjU4OTI5ODI0ODI5MTAxNiIgdmVyc2lvbj0iMS4xIiBpZD0iRWJlbmVfMSIgd2lkdGg9IjQwLjU4OTI5ODI0ODI5MTAxNiIgaGVpZ2h0PSI0MC41ODkyOTgyNDgyOTEwMTYiPiYjeGE7ICAmI3hhOyAgPGRlZnM+JiN4YTsgICAgPHN0eWxlPiYjeGE7ICAgICAgLnN0MCB7JiN4YTsgICAgICAgIGZpbGw6IG5vbmU7JiN4YTsgICAgICB9JiN4YTsgICAgPC9zdHlsZT4mI3hhOyAgPC9kZWZzPiYjeGE7ICA8ZyBpZD0iRWJlbmVfMyI+JiN4YTsgICAgPHJlY3QgaGVpZ2h0PSI0MC41ODkzIiB3aWR0aD0iNDAuNTg5MyIgeT0iLS4wMDAyIiBjbGFzcz0ic3QwIi8+JiN4YTsgIDwvZz4mI3hhOyAgPGcgaWQ9InBmZWlsZSI+JiN4YTsgICAgPHBhdGggZD0iTTM0LjQ2NjEsMy45NTU4YzEuMTk0OSwwLDIuMTY3Ljk3MjEsMi4xNjcsMi4xNjd2MjguMzQzM2MwLDEuMTk0OS0uOTcyMiwyLjE2Ny0yLjE2NzEsMi4xNjdINi4xMjI4Yy0xLjE5NDYsMC0yLjE2NjUtLjk3MjEtMi4xNjY1LTIuMTY3VjYuMTIyOGMwLTEuMTk0OS45NzE5LTIuMTY3LDIuMTY2NS0yLjE2N2gyOC4zNDMzTTYuNjk4NCwzNS4xMzNoMjcuMTkyNWMuNjg0OSwwLDEuMjQyMS0uNTU3MiwxLjI0MjEtMS4yNDIxVjYuNzAxNWMwLS42ODY5LS41NTg4LTEuMjQ1Ny0xLjI0NTctMS4yNDU3SDYuNjk4NGMtLjY4NDksMC0xLjI0MjEuNTU3Mi0xLjI0MjEsMS4yNDIxdjI3LjE5M2MwLC42ODQ5LjU1NzIsMS4yNDIxLDEuMjQyMSwxLjI0MjEiLz4mI3hhOyAgICA8cGF0aCBkPSJNMTIuMTYwNiwxMy4zNDM3bDIuMDY3Ny4wMDUzLTIuODg0NSwyLjg0NzUtLjQzMzUuNDI3OWg2LjkxNDh2MS40OTRoLTYuOTE0OGwuNDMzNC40Mjc5LDIuODg0NCwyLjg0NzYtMi4wNjc4LjAwNTItNC4wMDc3LTQuMDIwOSw0LjAwNzktNC4wMzQ1Ii8+JiN4YTsgICAgPHBhdGggZD0iTTEyLjE2MDYsMjQuNDQyNmwyLjA2NzcuMDA1My0yLjg4NDUsMi44NDc1LS40MzM1LjQyNzloNi45MTQ4djEuNDk0aC02LjkxNDhsLjQzMzQuNDI3OSwyLjg4NDQsMi44NDc2LTIuMDY3OC4wMDUyLTQuMDA3Ny00LjAyMDksNC4wMDc5LTQuMDM0NSIvPiYjeGE7ICAgIDxwYXRoIGQ9Ik0yOC40MzQ2LDE5LjE2MjdsNC4wMDc3LDQuMDIwOS00LjAwNzksNC4wMzQ1LTIuMDY3Ny0uMDA1MywyLjg4NDUtMi44NDc1LjQzMzUtLjQyNzloLTYuOTE0OHYtMS40OTRoNi45MTQ4bC0uNDMzNC0uNDI3OS0yLjg4NDQtMi44NDc2LDIuMDY3OC0uMDA1MiIvPiYjeGE7ICAgIDxwYXRoIGQ9Ik0yOC40MzQ2LDguMDYzN2w0LjAwNzcsNC4wMjA5LTQuMDA3OSw0LjAzNDUtMi4wNjc3LS4wMDUzLDIuODg0NS0yLjg0NzUuNDMzNS0uNDI3OWgtNi45MTQ4di0xLjQ5NGg2LjkxNDhsLS40MzM0LS40Mjc5LTIuODg0NC0yLjg0NzYsMi4wNjc4LS4wMDUyIi8+JiN4YTsgIDwvZz4mI3hhOzwvc3ZnPg==;flipH=1;" vertex="1" parent="1">
          <mxGeometry x="1280" y="1030" width="280" height="280" as="geometry" />
        </mxCell>
        <mxCell id="XSCT2WYPgkQ0aujzjNFR-14" value="" style="shape=image;verticalLabelPosition=bottom;verticalAlign=top;imageAspect=0;aspect=fixed;image=data:image/svg+xml,PHN2ZyB4bWxucz0iaHR0cDovL3d3dy53My5vcmcvMjAwMC9zdmciIHZpZXdCb3g9IjAgMCA0MC41ODkyOTgyNDgyOTEwMTYgNDAuNTg5Mjk4MjQ4MjkxMDE2IiB2ZXJzaW9uPSIxLjEiIGlkPSJFYmVuZV8xIiB3aWR0aD0iNDAuNTg5Mjk4MjQ4MjkxMDE2IiBoZWlnaHQ9IjQwLjU4OTI5ODI0ODI5MTAxNiI+JiN4YTsgICYjeGE7ICA8ZGVmcz4mI3hhOyAgICA8c3R5bGU+JiN4YTsgICAgICAuc3QwIHsmI3hhOyAgICAgICAgZmlsbDogbm9uZTsmI3hhOyAgICAgIH0mI3hhOyAgICA8L3N0eWxlPiYjeGE7ICA8L2RlZnM+JiN4YTsgIDxnIGlkPSJFYmVuZV8zIj4mI3hhOyAgICA8cmVjdCBoZWlnaHQ9IjQwLjU4OTMiIHdpZHRoPSI0MC41ODkzIiB5PSIwIiBjbGFzcz0ic3QwIi8+JiN4YTsgIDwvZz4mI3hhOyAgPGcgaWQ9InBmZWlsZSI+JiN4YTsgICAgPHBhdGggZD0iTTE5Ljk3NTYsMi4zNTZDMTAuMDg0NSwyLjM1NiwyLjAzNzEsMTAuNDAzNCwyLjAzNzEsMjAuMjk1czguMDQ3NCwxNy45MzksMTcuOTM4NSwxNy45MzksMTcuOTM5NS04LjA0NzksMTcuOTM5NS0xNy45MzlTMjkuODY3MiwyLjM1NiwxOS45NzU2LDIuMzU2Wk0xOS45NzU2LDM2LjQ4NGMtOC45MjYzLDAtMTYuMTg4NS03LjI2MjctMTYuMTg4NS0xNi4xODlTMTEuMDQ5Myw0LjEwNiwxOS45NzU2LDQuMTA2czE2LjE4ODUsNy4yNjIyLDE2LjE4ODUsMTYuMTg5LTcuMjYxNywxNi4xODktMTYuMTg4NSwxNi4xODlaIi8+JiN4YTsgICAgPHBhdGggZD0iTTE5Ljk3NTYsMi4zNTZDMTAuMDg0NSwyLjM1NiwyLjAzNzEsMTAuNDAzNCwyLjAzNzEsMjAuMjk1czguMDQ3NCwxNy45MzksMTcuOTM4NSwxNy45MzksMTcuOTM5NS04LjA0NzksMTcuOTM5NS0xNy45MzlTMjkuODY3MiwyLjM1NiwxOS45NzU2LDIuMzU2Wk0xOS45NzU2LDM2LjQ4NGMtOC45MjYzLDAtMTYuMTg4NS03LjI2MjctMTYuMTg4NS0xNi4xODlTMTEuMDQ5Myw0LjEwNiwxOS45NzU2LDQuMTA2czE2LjE4ODUsNy4yNjIyLDE2LjE4ODUsMTYuMTg5LTcuMjYxNywxNi4xODktMTYuMTg4NSwxNi4xODlaIi8+JiN4YTsgICAgPHBhdGggZD0iTTIzLjM0NzQsMjIuNjEyM2w0LjQ1MDgsNC40NTA5LjQzMDcuNDMwNy0uMDAzOS0uNjA5MS0uMDI2MS00LjA1MzEsMS40NjU5LDEuNDU4NS0uMDA5NCw1LjY3NzEtNS42ODY4LjAxODgtMS40NTgzLTEuNDY1OCw0LjA1MzEuMDI2MS42MDkxLjAwMzktLjQzMDctLjQzMDctNC40NTA5LTQuNDUwOCwxLjA1NjUtMS4wNTY1Ii8+JiN4YTsgICAgPHBhdGggZD0iTTE1Ljk4MjksMTAuNjAzM2wxLjQ1ODMsMS40NjU4LTQuMDUzMS0uMDI2MS0uNjA5MS0uMDAzOS40MzA3LjQzMDcsNC40NTg4LDQuNDU4OC0xLjA1NjQsMS4wNTY0LTQuNDU4OC00LjQ1ODgtLjQzMDctLjQzMDcuMDAzOS42MDkxLjAyNjEsNC4wNTMxLTEuNDY1OS0xLjQ1ODUuMDA5NC01LjY3NzEsNS42ODY4LS4wMTg4Ii8+JiN4YTsgICAgPHBhdGggZD0iTTI4LjQ3NDksMTAuNzI2OWwxLjA2NjEsMS4wNjYxLTQuNDYyNCw0LjQ1MjktLjQzMDUuNDI5Ni42MDgyLS4wMDI2LDQuMDUwNC0uMDE3NC0xLjQ2NDYsMS40NTcyLTUuNjc3OC0uMDA5NC0uMDE4OC01LjY3NzIsMS40NjctMS40NjctLjAxNzQsNC4wNTI4LS4wMDI2LjYwODEuNDI5Ni0uNDMwNSw0LjQ1My00LjQ2MjUiLz4mI3hhOyAgICA8cGF0aCBkPSJNMTIuMTA5NywyMi40NjY4bDUuNjY3Ni4wMTg4LjAxODgsNS42Nzc2LTEuNDY1NywxLjQ2NTcuMDI2MS00LjA1MDkuMDAzOS0uNjA5MS0uNDMwNy40MzA3LTQuNDUzNCw0LjQ1MzUtMS4wNTc2LTEuMDY1MSw0LjQ1NDQtNC40NDQ2LjQzMDUtLjQyOTYtLjYwODIuMDAyNi00LjA1MjguMDE3NCwxLjQ2Ny0xLjQ2NyIvPiYjeGE7ICA8L2c+JiN4YTs8L3N2Zz4=" vertex="1" parent="1">
          <mxGeometry x="686" y="1720" width="280" height="280" as="geometry" />
        </mxCell>
        <mxCell id="XSCT2WYPgkQ0aujzjNFR-15" value="" style="shape=image;verticalLabelPosition=bottom;verticalAlign=top;imageAspect=0;aspect=fixed;image=data:image/svg+xml,PHN2ZyB4bWxucz0iaHR0cDovL3d3dy53My5vcmcvMjAwMC9zdmciIHZpZXdCb3g9IjAgMCA0MS4xODQ2MDA4MzAwNzgxMjUgNDEuMTg0NjAwODMwMDc4MTI1IiB3aWR0aD0iNDEuMTg0NjAwODMwMDc4MTI1IiBoZWlnaHQ9IjQxLjE4NDYwMDgzMDA3ODEyNSI+PGRlZnM+PHN0eWxlPi5jbHMtMXtmaWxsOm5vbmU7fTwvc3R5bGU+PC9kZWZzPjxnIGlkPSJFYmVuZV8yIiBkYXRhLW5hbWU9IkViZW5lIDIiPjxwYXRoIGQ9Ik00OS42MDY0LDMxLjkzMTJhLjc1Ljc1LDAsMCwwLDAtMS41SDQzLjk0NzN2LTUuNzFoNS42NTkxYS43NS43NSwwLDAsMCwwLTEuNUg0My45NDczVjIxLjIzYTIuODE3OSwyLjgxNzksMCwwLDAtMi44MTQ1LTIuODE0OUgzOS4xNDA2VjEyLjc1NTlhLjc1Ljc1LDAsMCwwLTEuNSwwdjUuNjU4N0gzMS45MzEyVjEyLjc1NTlhLjc1Ljc1LDAsMCwwLTEuNSwwdjUuNjU4N2gtNS43MVYxMi43NTU5YS43NS43NSwwLDAsMC0xLjUsMHY1LjY1ODdIMjEuMjNBMi44MTc5LDIuODE3OSwwLDAsMCwxOC40MTQ2LDIxLjIzdjEuOTkxN0gxMi43NTU5YS43NS43NSwwLDAsMCwwLDEuNWg1LjY1ODd2NS43MUgxMi43NTU5YS43NS43NSwwLDAsMCwwLDEuNWg1LjY1ODd2NS43MDk0SDEyLjc1NTlhLjc1Ljc1LDAsMCwwLDAsMS41aDUuNjU4N3YxLjk5MjJBMi44MTc5LDIuODE3OSwwLDAsMCwyMS4yMyw0My45NDczaDEuOTkxN3Y1LjY1OTFhLjc1Ljc1LDAsMCwwLDEuNSwwVjQzLjk0NzNoNS43MXY1LjY1OTFhLjc1Ljc1LDAsMCwwLDEuNSwwVjQzLjk0NzNoNS43MDk0djUuNjU5MWEuNzUuNzUsMCwwLDAsMS41LDBWNDMuOTQ3M2gxLjk5MjJhMi44MTc4LDIuODE3OCwwLDAsMCwyLjgxNDUtMi44MTQ1VjM5LjE0MDZoNS42NTkxYS43NS43NSwwLDAsMCwwLTEuNUg0My45NDczVjMxLjkzMTJabS03LjE1OTEsOS4yMDE2YTEuMzE2MywxLjMxNjMsMCwwLDEtMS4zMTQ1LDEuMzE0NUgyMS4yM2ExLjMxNjMsMS4zMTYzLDAsMCwxLTEuMzE0OS0xLjMxNDVWMjEuMjNBMS4zMTYzLDEuMzE2MywwLDAsMSwyMS4yMywxOS45MTQ2SDQxLjEzMjhBMS4zMTYzLDEuMzE2MywwLDAsMSw0Mi40NDczLDIxLjIzWiIgdHJhbnNmb3JtPSJ0cmFuc2xhdGUoLTEwLjU4ODkgLTEwLjU4ODkpIi8+PHBhdGggZD0iTTM5Ljk5MzIsMjEuNjE5MUgyMi4zNjkxYS43NS43NSwwLDAsMC0uNzUuNzVWMzkuOTkzMmEuNzUuNzUsMCwwLDAsLjc1Ljc1SDM5Ljk5MzJhLjc1Ljc1LDAsMCwwLC43NS0uNzVWMjIuMzY5MUEuNzUuNzUsMCwwLDAsMzkuOTkzMiwyMS42MTkxWm0tLjc1LDE3LjYyNDFIMjMuMTE5MVYyMy4xMTkxSDM5LjI0MzJaIiB0cmFuc2Zvcm09InRyYW5zbGF0ZSgtMTAuNTg4OSAtMTAuNTg4OSkiLz48cGF0aCBkPSJNMjYuNzQsMzMuMzU0NWEyLjAzNjIsMi4wMzYyLDAsMCwxLS43NzU0LS4xNDg0LDEuODkyNiwxLjg5MjYsMCwwLDEtLjYzLS40MTUxLDIuMDAyMiwyLjAwMjIsMCwwLDEtLjU4LTEuNDI3N3YtLjAxMDhhMi4wMDQzLDIuMDA0MywwLDAsMSwuNTc3Ni0xLjQyMTgsMS45MjYxLDEuOTI2MSwwLDAsMSwuNjQwNi0uNDI2MywyLjEsMi4xLDAsMCwxLC44MTExLS4xNTM4LDIuMzE3NCwyLjMxNzQsMCwwLDEsLjUzOS4wNTc2LDEuODMzNiwxLjgzMzYsMCwwLDEsLjQ0MjkuMTY1LDEuNzY5MiwxLjc2OTIsMCwwLDEsLjM2MjguMjU1NCwyLjExMzcsMi4xMTM3LDAsMCwxLC4yODkxLjMyNDdsLS44MDMzLjYyMTZhMS4zODgsMS4zODgsMCwwLDAtLjM2MjctLjMzLjkwMjMuOTAyMywwLDAsMC0uNDc4Ni0uMTIxMS44NTI3Ljg1MjcsMCwwLDAtLjM3MTEuMDguODg3MS44ODcxLDAsMCwwLS4yODkuMjE2OCwxLjAxMzMsMS4wMTMzLDAsMCwwLS4xODk1LjMyNDcsMS4xMzY4LDEuMTM2OCwwLDAsMC0uMDY4OC4zOTZ2LjAxMTJhMS4xOCwxLjE4LDAsMCwwLC4wNjg4LjQwNDMsMS4wMDQzLDEuMDA0MywwLDAsMCwuMTg5NS4zMjcyLjg5MTQuODkxNCwwLDAsMCwuMjg5LjIxNzguODU5NC44NTk0LDAsMCwwLC4zNzExLjA3OTEsMS4wMzIyLDEuMDMyMiwwLDAsMCwuMjcyLS4wMzMyLjgyMi44MjIsMCwwLDAsLjIyNTYtLjA5NTcsMS4yMywxLjIzLDAsMCwwLC4xOTI5LS4xNDg1LDIuNDIyMSwyLjQyMjEsMCwwLDAsLjE3ODctLjE5bC44MDI3LjU3MThhMi44MzYxLDIuODM2MSwwLDAsMS0uMy4zNDY2LDEuNzIsMS43MiwwLDAsMS0uMzY4Mi4yNzU0LDEuOTYsMS45NiwwLDAsMS0uNDYyNC4xODE3QTIuMzA2NywyLjMwNjcsMCwwLDEsMjYuNzQsMzMuMzU0NVoiIHRyYW5zZm9ybT0idHJhbnNsYXRlKC0xMC41ODg5IC0xMC41ODg5KSIvPjxwYXRoIGQ9Ik0yOS4zNjkxLDI5LjQyNzJoMS42NWEyLjI0NzgsMi4yNDc4LDAsMCwxLC42Ni4wOTA5LDEuNDQyLDEuNDQyLDAsMCwxLC41MDYzLjI2NDEsMS4xNiwxLjE2LDAsMCwxLC4zMjEzLjQyNjMsMS4zOSwxLjM5LDAsMCwxLC4xMTIzLjU3MTh2LjAxMTJhMS4zNzc4LDEuMzc3OCwwLDAsMS0uMTIzLjU5OTEsMS4yMjkyLDEuMjI5MiwwLDAsMS0uMzQzOC40MzQ2LDEuNDgyMSwxLjQ4MjEsMCwwLDEtLjUyNTMuMjY0NiwyLjM4NzUsMi4zODc1LDAsMCwxLS42NjI2LjA4NzloLS41Mjc5djEuMUgyOS4zNjkxWm0xLjU3MzMsMS45MTQxYS42OC42OCwwLDAsMCwuNDQ4Mi0uMTM1Mi40NTQ3LjQ1NDcsMCwwLDAsLjE2MjEtLjM2Nzd2LS4wMTEzYS40NTcyLjQ1NzIsMCwwLDAtLjE2MjEtLjM3ODkuNzEuNzEsMCwwLDAtLjQ1MzYtLjEzaC0uNTAwNXYxLjAyMjlaIiB0cmFuc2Zvcm09InRyYW5zbGF0ZSgtMTAuNTg4OSAtMTAuNTg4OSkiLz48cGF0aCBkPSJNMzUuMjcxNSwzMy4zNDg2YTIuNDMzMiwyLjQzMzIsMCwwLDEtLjc0MzItLjEwNDUsMS4zNzc5LDEuMzc3OSwwLDAsMS0uOTE2LS44NzExLDIuMjYsMi4yNiwwLDAsMS0uMTIzLS43ODQxVjI5LjQyNzJoMS4wODg4djIuMTRhLjg3MS44NzEsMCwwLDAsLjE5MDUuNjE4Ni42NzcyLjY3NzIsMCwwLDAsLjUxMzYuMjAxMi42OS42OSwwLDAsMCwuNTEyNy0uMTkyNC44MjU2LjgyNTYsMCwwLDAsLjE5MTQtLjZ2LTIuMTY3aDEuMDg4OXYyLjEzNDNhMi4yNDEzLDIuMjQxMywwLDAsMS0uMTMuODA1NywxLjM5MDYsMS4zOTA2LDAsMCwxLS45Mjg3Ljg3NjlBMi40NjQxLDIuNDY0MSwwLDAsMSwzNS4yNzE1LDMzLjM0ODZaIiB0cmFuc2Zvcm09InRyYW5zbGF0ZSgtMTAuNTg4OSAtMTAuNTg4OSkiLz48L2c+PGcgaWQ9IkViZW5lXzQiIGRhdGEtbmFtZT0iRWJlbmUgNCI+PHJlY3QgY2xhc3M9ImNscy0xIiB3aWR0aD0iNDEuMTg0NiIgaGVpZ2h0PSI0MS4xODQ2Ii8+PC9nPjwvc3ZnPg==;rotation=-45;" vertex="1" parent="1">
          <mxGeometry x="80" y="1410" width="280" height="280" as="geometry" />
        </mxCell>
        <mxCell id="XSCT2WYPgkQ0aujzjNFR-16" value="" style="shape=image;verticalLabelPosition=bottom;verticalAlign=top;imageAspect=0;aspect=fixed;image=data:image/svg+xml,PHN2ZyB4bWxucz0iaHR0cDovL3d3dy53My5vcmcvMjAwMC9zdmciIHZpZXdCb3g9IjAgMCA0MS4xODQ2MDA4MzAwNzgxMjUgNDEuMTg0NjAwODMwMDc4MTI1IiB3aWR0aD0iNDEuMTg0NjAwODMwMDc4MTI1IiBoZWlnaHQ9IjQxLjE4NDYwMDgzMDA3ODEyNSI+PGRlZnM+PHN0eWxlPi5jbHMtMXtmaWxsOm5vbmU7fTwvc3R5bGU+PC9kZWZzPjxnIGlkPSJFYmVuZV8yIiBkYXRhLW5hbWU9IkViZW5lIDIiPjxwYXRoIGQ9Ik00OS42MDY0LDMxLjkzMTJhLjc1Ljc1LDAsMCwwLDAtMS41SDQzLjk0NzN2LTUuNzFoNS42NTkxYS43NS43NSwwLDAsMCwwLTEuNUg0My45NDczVjIxLjIzYTIuODE3OSwyLjgxNzksMCwwLDAtMi44MTQ1LTIuODE0OUgzOS4xNDA2VjEyLjc1NTlhLjc1Ljc1LDAsMCwwLTEuNSwwdjUuNjU4N0gzMS45MzEyVjEyLjc1NTlhLjc1Ljc1LDAsMCwwLTEuNSwwdjUuNjU4N2gtNS43MVYxMi43NTU5YS43NS43NSwwLDAsMC0xLjUsMHY1LjY1ODdIMjEuMjNBMi44MTc5LDIuODE3OSwwLDAsMCwxOC40MTQ2LDIxLjIzdjEuOTkxN0gxMi43NTU5YS43NS43NSwwLDAsMCwwLDEuNWg1LjY1ODd2NS43MUgxMi43NTU5YS43NS43NSwwLDAsMCwwLDEuNWg1LjY1ODd2NS43MDk0SDEyLjc1NTlhLjc1Ljc1LDAsMCwwLDAsMS41aDUuNjU4N3YxLjk5MjJBMi44MTc5LDIuODE3OSwwLDAsMCwyMS4yMyw0My45NDczaDEuOTkxN3Y1LjY1OTFhLjc1Ljc1LDAsMCwwLDEuNSwwVjQzLjk0NzNoNS43MXY1LjY1OTFhLjc1Ljc1LDAsMCwwLDEuNSwwVjQzLjk0NzNoNS43MDk0djUuNjU5MWEuNzUuNzUsMCwwLDAsMS41LDBWNDMuOTQ3M2gxLjk5MjJhMi44MTc4LDIuODE3OCwwLDAsMCwyLjgxNDUtMi44MTQ1VjM5LjE0MDZoNS42NTkxYS43NS43NSwwLDAsMCwwLTEuNUg0My45NDczVjMxLjkzMTJabS03LjE1OTEsOS4yMDE2YTEuMzE2MywxLjMxNjMsMCwwLDEtMS4zMTQ1LDEuMzE0NUgyMS4yM2ExLjMxNjMsMS4zMTYzLDAsMCwxLTEuMzE0OS0xLjMxNDVWMjEuMjNBMS4zMTYzLDEuMzE2MywwLDAsMSwyMS4yMywxOS45MTQ2SDQxLjEzMjhBMS4zMTYzLDEuMzE2MywwLDAsMSw0Mi40NDczLDIxLjIzWiIgdHJhbnNmb3JtPSJ0cmFuc2xhdGUoLTEwLjU4ODkgLTEwLjU4ODkpIi8+PHBhdGggZD0iTTM5Ljk5MzIsMjEuNjE5MUgyMi4zNjkxYS43NS43NSwwLDAsMC0uNzUuNzVWMzkuOTkzMmEuNzUuNzUsMCwwLDAsLjc1Ljc1SDM5Ljk5MzJhLjc1Ljc1LDAsMCwwLC43NS0uNzVWMjIuMzY5MUEuNzUuNzUsMCwwLDAsMzkuOTkzMiwyMS42MTkxWm0tLjc1LDE3LjYyNDFIMjMuMTE5MVYyMy4xMTkxSDM5LjI0MzJaIiB0cmFuc2Zvcm09InRyYW5zbGF0ZSgtMTAuNTg4OSAtMTAuNTg4OSkiLz48cGF0aCBkPSJNMjYuNzQsMzMuMzU0NWEyLjAzNjIsMi4wMzYyLDAsMCwxLS43NzU0LS4xNDg0LDEuODkyNiwxLjg5MjYsMCwwLDEtLjYzLS40MTUxLDIuMDAyMiwyLjAwMjIsMCwwLDEtLjU4LTEuNDI3N3YtLjAxMDhhMi4wMDQzLDIuMDA0MywwLDAsMSwuNTc3Ni0xLjQyMTgsMS45MjYxLDEuOTI2MSwwLDAsMSwuNjQwNi0uNDI2MywyLjEsMi4xLDAsMCwxLC44MTExLS4xNTM4LDIuMzE3NCwyLjMxNzQsMCwwLDEsLjUzOS4wNTc2LDEuODMzNiwxLjgzMzYsMCwwLDEsLjQ0MjkuMTY1LDEuNzY5MiwxLjc2OTIsMCwwLDEsLjM2MjguMjU1NCwyLjExMzcsMi4xMTM3LDAsMCwxLC4yODkxLjMyNDdsLS44MDMzLjYyMTZhMS4zODgsMS4zODgsMCwwLDAtLjM2MjctLjMzLjkwMjMuOTAyMywwLDAsMC0uNDc4Ni0uMTIxMS44NTI3Ljg1MjcsMCwwLDAtLjM3MTEuMDguODg3MS44ODcxLDAsMCwwLS4yODkuMjE2OCwxLjAxMzMsMS4wMTMzLDAsMCwwLS4xODk1LjMyNDcsMS4xMzY4LDEuMTM2OCwwLDAsMC0uMDY4OC4zOTZ2LjAxMTJhMS4xOCwxLjE4LDAsMCwwLC4wNjg4LjQwNDMsMS4wMDQzLDEuMDA0MywwLDAsMCwuMTg5NS4zMjcyLjg5MTQuODkxNCwwLDAsMCwuMjg5LjIxNzguODU5NC44NTk0LDAsMCwwLC4zNzExLjA3OTEsMS4wMzIyLDEuMDMyMiwwLDAsMCwuMjcyLS4wMzMyLjgyMi44MjIsMCwwLDAsLjIyNTYtLjA5NTcsMS4yMywxLjIzLDAsMCwwLC4xOTI5LS4xNDg1LDIuNDIyMSwyLjQyMjEsMCwwLDAsLjE3ODctLjE5bC44MDI3LjU3MThhMi44MzYxLDIuODM2MSwwLDAsMS0uMy4zNDY2LDEuNzIsMS43MiwwLDAsMS0uMzY4Mi4yNzU0LDEuOTYsMS45NiwwLDAsMS0uNDYyNC4xODE3QTIuMzA2NywyLjMwNjcsMCwwLDEsMjYuNzQsMzMuMzU0NVoiIHRyYW5zZm9ybT0idHJhbnNsYXRlKC0xMC41ODg5IC0xMC41ODg5KSIvPjxwYXRoIGQ9Ik0yOS4zNjkxLDI5LjQyNzJoMS42NWEyLjI0NzgsMi4yNDc4LDAsMCwxLC42Ni4wOTA5LDEuNDQyLDEuNDQyLDAsMCwxLC41MDYzLjI2NDEsMS4xNiwxLjE2LDAsMCwxLC4zMjEzLjQyNjMsMS4zOSwxLjM5LDAsMCwxLC4xMTIzLjU3MTh2LjAxMTJhMS4zNzc4LDEuMzc3OCwwLDAsMS0uMTIzLjU5OTEsMS4yMjkyLDEuMjI5MiwwLDAsMS0uMzQzOC40MzQ2LDEuNDgyMSwxLjQ4MjEsMCwwLDEtLjUyNTMuMjY0NiwyLjM4NzUsMi4zODc1LDAsMCwxLS42NjI2LjA4NzloLS41Mjc5djEuMUgyOS4zNjkxWm0xLjU3MzMsMS45MTQxYS42OC42OCwwLDAsMCwuNDQ4Mi0uMTM1Mi40NTQ3LjQ1NDcsMCwwLDAsLjE2MjEtLjM2Nzd2LS4wMTEzYS40NTcyLjQ1NzIsMCwwLDAtLjE2MjEtLjM3ODkuNzEuNzEsMCwwLDAtLjQ1MzYtLjEzaC0uNTAwNXYxLjAyMjlaIiB0cmFuc2Zvcm09InRyYW5zbGF0ZSgtMTAuNTg4OSAtMTAuNTg4OSkiLz48cGF0aCBkPSJNMzUuMjcxNSwzMy4zNDg2YTIuNDMzMiwyLjQzMzIsMCwwLDEtLjc0MzItLjEwNDUsMS4zNzc5LDEuMzc3OSwwLDAsMS0uOTE2LS44NzExLDIuMjYsMi4yNiwwLDAsMS0uMTIzLS43ODQxVjI5LjQyNzJoMS4wODg4djIuMTRhLjg3MS44NzEsMCwwLDAsLjE5MDUuNjE4Ni42NzcyLjY3NzIsMCwwLDAsLjUxMzYuMjAxMi42OS42OSwwLDAsMCwuNTEyNy0uMTkyNC44MjU2LjgyNTYsMCwwLDAsLjE5MTQtLjZ2LTIuMTY3aDEuMDg4OXYyLjEzNDNhMi4yNDEzLDIuMjQxMywwLDAsMS0uMTMuODA1NywxLjM5MDYsMS4zOTA2LDAsMCwxLS45Mjg3Ljg3NjlBMi40NjQxLDIuNDY0MSwwLDAsMSwzNS4yNzE1LDMzLjM0ODZaIiB0cmFuc2Zvcm09InRyYW5zbGF0ZSgtMTAuNTg4OSAtMTAuNTg4OSkiLz48L2c+PGcgaWQ9IkViZW5lXzQiIGRhdGEtbmFtZT0iRWJlbmUgNCI+PHJlY3QgY2xhc3M9ImNscy0xIiB3aWR0aD0iNDEuMTg0NiIgaGVpZ2h0PSI0MS4xODQ2Ii8+PC9nPjwvc3ZnPg==" vertex="1" parent="1">
          <mxGeometry x="1280" y="630" width="280" height="280" as="geometry" />
        </mxCell>
        <mxCell id="XSCT2WYPgkQ0aujzjNFR-17" value="" style="shape=image;verticalLabelPosition=bottom;verticalAlign=top;imageAspect=0;aspect=fixed;image=data:image/svg+xml,PHN2ZyB4bWxucz0iaHR0cDovL3d3dy53My5vcmcvMjAwMC9zdmciIHZpZXdCb3g9IjAgMCA0MC41ODkyOTgyNDgyOTEwMTYgNDAuNTg5Mjk4MjQ4MjkxMDE2IiB3aWR0aD0iNDAuNTg5Mjk4MjQ4MjkxMDE2IiBoZWlnaHQ9IjQwLjU4OTI5ODI0ODI5MTAxNiI+PGRlZnM+PHN0eWxlPi5jbHMtMXtmaWxsOm5vbmU7fTwvc3R5bGU+PC9kZWZzPjxnIGlkPSJFYmVuZV8yIiBkYXRhLW5hbWU9IkViZW5lIDIiPjxwYXRoIGQ9Ik00NS44MzY5LDM0LjU4bDEuNDA4Mi0xLjQwODJhMi44MTU3LDIuODE1NywwLDAsMCwwLTMuOTgxbC0xLjQwODQtMS40MDg1LDQuMDAxMi00LjAwMTZBLjc1Ljc1LDAsMCwwLDQ4Ljc3NzMsMjIuNzJsLTQuMDAxMiw0LjAwMTdMNDAuNzM4NCwyMi42ODQsNDQuNzQsMTguNjgyNkEuNzUuNzUsMCwxLDAsNDMuNjgsMTcuNjIyMWwtNC4wMDE4LDQuMDAxMy00LjAzNzMtNC4wMzc1LDQuMDAxLTQuMDAxNGEuNzUuNzUsMCwxLDAtMS4wNi0xLjA2MDZMMzQuNTgsMTYuNTI1NGwtMS40MDgxLTEuNDA4MmEyLjg4MjUsMi44ODI1LDAsMCwwLTMuOTgxLDBsLTEuNDA4NCwxLjQwODQtNC4wMDE3LTQuMDAxN0EuNzUuNzUsMCwwLDAsMjIuNzIsMTMuNTg0NWw0LjAwMTcsNC4wMDE3LTQuMDM3Niw0LjAzNzYtNC4wMDE3LTQuMDAxN2EuNzUuNzUsMCwxLDAtMS4wNjA1LDEuMDYwNWw0LjAwMTcsNC4wMDE3LTQuMDM3Niw0LjAzNzZMMTMuNTg0NSwyMi43MmEuNzUuNzUsMCwwLDAtMS4wNjA2LDEuMDYwNmw0LjAwMTcsNC4wMDE3LTEuNDA4NCwxLjQwODRhMi44MTQ1LDIuODE0NSwwLDAsMCwwLDMuOTgxTDE2LjUyNTQsMzQuNThsLTQuMDAxNSw0LjAwMTFhLjc1Ljc1LDAsMSwwLDEuMDYwNiwxLjA2bDQuMDAxNC00LjAwMSw0LjAzNzUsNC4wMzczTDE3LjYyMjEsNDMuNjhBLjc1Ljc1LDAsMSwwLDE4LjY4MjYsNDQuNzRsNC4wMDE0LTQuMDAxOCw0LjAzNzksNC4wMzc3TDIyLjcyLDQ4Ljc3NzNhLjc1Ljc1LDAsMSwwLDEuMDYwNiwxLjA2MDZsNC4wMDE2LTQuMDAxMiwxLjQwODUsMS40MDg0YTIuODE1NywyLjgxNTcsMCwwLDAsMy45ODEsMEwzNC41OCw0NS44MzY5bDQuMDAxLDQuMDAxYS43NS43NSwwLDAsMCwxLjA2LTEuMDYwNmwtNC4wMDEtNC4wMDA5LDQuMDM3Ni00LjAzNzZMNDMuNjgsNDQuNzRBLjc1Ljc1LDAsMCwwLDQ0Ljc0LDQzLjY4bC00LjAwMTQtNC4wMDE1LDQuMDM3Ni00LjAzNzYsNC4wMDA5LDQuMDAxYS43NS43NSwwLDEsMCwxLjA2MDYtMS4wNlpNMzIuMTExMyw0Ni4xODQ2YTEuMzQ4MSwxLjM0ODEsMCwwLDEtMS44NiwwbC03LjAzNjctNy4wMzY0LDAtLjAwMDctLjAwMDgtLjAwMDUtNy4wMzU5LTcuMDM1N2ExLjMxNSwxLjMxNSwwLDAsMSwwLTEuODZMMzAuMjUxNSwxNi4xNzc3YTEuMzE1LDEuMzE1LDAsMCwxLDEuODYsMGw3LjAzNTcsNy4wMzU5LjAwMDUuMDAwOC4wMDA3LDAsNy4wMzY0LDcuMDM2N2ExLjMxNjIsMS4zMTYyLDAsMCwxLDAsMS44NkwzOS4xNSwzOS4xNDU1bC0uMDAyOS4wMDItLjAwMi4wMDI5WiIgdHJhbnNmb3JtPSJ0cmFuc2xhdGUoLTEwLjg4NjMgLTEwLjg4NjMpIi8+PHBhdGggZD0iTTQ0LjE3MzgsMzAuNjUwOSwzMS43MTE0LDE4LjE4ODVhLjc1Ljc1LDAsMCwwLTEuMDYwNSwwTDE4LjE4ODUsMzAuNjUwOWEuNzUuNzUsMCwwLDAsMCwxLjA2MDVMMzAuNjUwOSw0NC4xNzM4YS43NDk1Ljc0OTUsMCwwLDAsMS4wNjA1LDBMNDQuMTczOCwzMS43MTE0QS43NS43NSwwLDAsMCw0NC4xNzM4LDMwLjY1MDlaTTMxLjE4MTIsNDIuNTgzLDE5Ljc3OTMsMzEuMTgxMiwzMS4xODEyLDE5Ljc3OTMsNDIuNTgzLDMxLjE4MTJaIiB0cmFuc2Zvcm09InRyYW5zbGF0ZSgtMTAuODg2MyAtMTAuODg2MykiLz48cGF0aCBkPSJNMjYuNzQzMiwzMy4zNTQ1YTIuMzMxMywyLjMzMTMsMCwwLDEtLjgzMzUtLjE0NTUsMiwyLDAsMCwxLS42NjI2LS40MSwxLjg4MzcsMS44ODM3LDAsMCwxLS40NC0uNjMsMS45OTE0LDEuOTkxNCwwLDAsMS0uMTYtLjgwNTZ2LS4wMTA4YTEuOTg4NywxLjk4ODcsMCwwLDEsLjU4NTQtMS40MjE4LDEuOTUsMS45NSwwLDAsMSwuNjU1My0uNDI2MywyLjE5MzMsMi4xOTMzLDAsMCwxLC44MjcxLS4xNTM4LDIuMzcsMi4zNywwLDAsMSwuODgyOC4xNDg0LDIuNDA5MSwyLjQwOTEsMCwwLDEsLjY3OTIuNDEyMWwtLjYyNjkuNzUzOWExLjcsMS43LDAsMCwwLS40MjYzLS4yNywxLjI2MDYsMS4yNjA2LDAsMCwwLS41MDI5LS4wOTM3LjkxMTYuOTExNiwwLDAsMC0uMzg4Mi4wODI1Ljk3NjUuOTc2NSwwLDAsMC0uMzEuMjI1NiwxLjA3NzcsMS4wNzc3LDAsMCwwLS4yMDkuMzM1NCwxLjEwMjUsMS4xMDI1LDAsMCwwLS4wNzcyLjQxMjZ2LjAxMDhhMS4xNjQsMS4xNjQsMCwwLDAsLjA3NzcuNDI5Mi45Ny45NywwLDAsMCwuMjE3Ny4zMzg4LDEuMDI2MywxLjAyNjMsMCwwLDAsLjMzMTEuMjIsMS4wODkyLDEuMDg5MiwwLDAsMCwuNDIyNC4wOCwxLjEwMjUsMS4xMDI1LDAsMCwwLC42MTc2LS4xNnYtLjQ2NzNIMjYuNjQ0di0uNzgxM2gxLjc3MXYxLjczMjlhMi44MTEsMi44MTEsMCwwLDEtLjcyNi40MjM5QTIuNDkyNSwyLjQ5MjUsMCwwLDEsMjYuNzQzMiwzMy4zNTQ1WiIgdHJhbnNmb3JtPSJ0cmFuc2xhdGUoLTEwLjg4NjMgLTEwLjg4NjMpIi8+PHBhdGggZD0iTTI5LjQ3NjEsMjkuNDI3MmgxLjY1YTIuMjQ2NiwyLjI0NjYsMCwwLDEsLjY2LjA5MDksMS40NCwxLjQ0LDAsMCwxLC41MDU5LjI2NDEsMS4xNTA3LDEuMTUwNywwLDAsMSwuMzIxMy40MjYzLDEuMzksMS4zOSwwLDAsMSwuMTEzMy41NzE4di4wMTEyYTEuMzYzNiwxLjM2MzYsMCwwLDEtLjEyNDEuNTk5MSwxLjIxNzksMS4yMTc5LDAsMCwxLS4zNDM3LjQzNDYsMS40ODEsMS40ODEsMCwwLDEtLjUyNDkuMjY0NiwyLjM4NjUsMi4zODY1LDAsMCwxLS42NjI2LjA4NzloLS41Mjc4djEuMUgyOS40NzYxWm0xLjU3MzIsMS45MTQxYS42OC42OCwwLDAsMCwuNDQ4My0uMTM1Mi40NTQ3LjQ1NDcsMCwwLDAsLjE2MjEtLjM2Nzd2LS4wMTEzYS40NTcyLjQ1NzIsMCwwLDAtLjE2MjEtLjM3ODkuNzEuNzEsMCwwLDAtLjQ1MzctLjEzaC0uNXYxLjAyMjlaIiB0cmFuc2Zvcm09InRyYW5zbGF0ZSgtMTAuODg2MyAtMTAuODg2MykiLz48cGF0aCBkPSJNMzUuMzc3OSwzMy4zNDg2YTIuNDI3LDIuNDI3LDAsMCwxLS43NDIyLS4xMDQ1LDEuNDM3NCwxLjQzNzQsMCwwLDEtLjU2MTUtLjMyMTIsMS40MjIsMS40MjIsMCwwLDEtLjM1NDUtLjU1LDIuMjM2MSwyLjIzNjEsMCwwLDEtLjEyNC0uNzg0MVYyOS40MjcyaDEuMDg4OXYyLjE0YS44NzExLjg3MTEsMCwwLDAsLjE5MTQuNjE4Ni42NzM1LjY3MzUsMCwwLDAsLjUxMjcuMjAxMi42OTM2LjY5MzYsMCwwLDAsLjUxMzYtLjE5MjQuODI1NS44MjU1LDAsMCwwLC4xOTA1LS42di0yLjE2N2gxLjA4ODh2Mi4xMzQzYTIuMjYyMiwyLjI2MjIsMCwwLDEtLjEyODkuODA1NywxLjQ0MTksMS40NDE5LDAsMCwxLS4zNjMyLjU1NTcsMS40NTc2LDEuNDU3NiwwLDAsMS0uNTY2NS4zMjEyQTIuNDU0NSwyLjQ1NDUsMCwwLDEsMzUuMzc3OSwzMy4zNDg2WiIgdHJhbnNmb3JtPSJ0cmFuc2xhdGUoLTEwLjg4NjMgLTEwLjg4NjMpIi8+PC9nPjxnIGlkPSJFYmVuZV80IiBkYXRhLW5hbWU9IkViZW5lIDQiPjxyZWN0IGNsYXNzPSJjbHMtMSIgd2lkdGg9IjQwLjU4OTMiIGhlaWdodD0iNDAuNTg5MyIvPjwvZz48L3N2Zz4=;rotation=45;" vertex="1" parent="1">
          <mxGeometry x="1280" y="1410" width="280" height="280" as="geometry" />
        </mxCell>
        <mxCell id="XSCT2WYPgkQ0aujzjNFR-18" value="" style="shape=image;verticalLabelPosition=bottom;verticalAlign=top;imageAspect=0;aspect=fixed;image=data:image/svg+xml,PHN2ZyB4bWxucz0iaHR0cDovL3d3dy53My5vcmcvMjAwMC9zdmciIHZpZXdCb3g9IjAgMCA0MC41ODkyOTgyNDgyOTEwMTYgNDAuNTg5Mjk4MjQ4MjkxMDE2IiB3aWR0aD0iNDAuNTg5Mjk4MjQ4MjkxMDE2IiBoZWlnaHQ9IjQwLjU4OTI5ODI0ODI5MTAxNiI+PGRlZnM+PHN0eWxlPi5jbHMtMXtmaWxsOm5vbmU7fTwvc3R5bGU+PC9kZWZzPjxnIGlkPSJFYmVuZV8yIiBkYXRhLW5hbWU9IkViZW5lIDIiPjxwYXRoIGQ9Ik00NS44MzY5LDM0LjU4bDEuNDA4Mi0xLjQwODJhMi44MTU3LDIuODE1NywwLDAsMCwwLTMuOTgxbC0xLjQwODQtMS40MDg1LDQuMDAxMi00LjAwMTZBLjc1Ljc1LDAsMCwwLDQ4Ljc3NzMsMjIuNzJsLTQuMDAxMiw0LjAwMTdMNDAuNzM4NCwyMi42ODQsNDQuNzQsMTguNjgyNkEuNzUuNzUsMCwxLDAsNDMuNjgsMTcuNjIyMWwtNC4wMDE4LDQuMDAxMy00LjAzNzMtNC4wMzc1LDQuMDAxLTQuMDAxNGEuNzUuNzUsMCwxLDAtMS4wNi0xLjA2MDZMMzQuNTgsMTYuNTI1NGwtMS40MDgxLTEuNDA4MmEyLjg4MjUsMi44ODI1LDAsMCwwLTMuOTgxLDBsLTEuNDA4NCwxLjQwODQtNC4wMDE3LTQuMDAxN0EuNzUuNzUsMCwwLDAsMjIuNzIsMTMuNTg0NWw0LjAwMTcsNC4wMDE3LTQuMDM3Niw0LjAzNzYtNC4wMDE3LTQuMDAxN2EuNzUuNzUsMCwxLDAtMS4wNjA1LDEuMDYwNWw0LjAwMTcsNC4wMDE3LTQuMDM3Niw0LjAzNzZMMTMuNTg0NSwyMi43MmEuNzUuNzUsMCwwLDAtMS4wNjA2LDEuMDYwNmw0LjAwMTcsNC4wMDE3LTEuNDA4NCwxLjQwODRhMi44MTQ1LDIuODE0NSwwLDAsMCwwLDMuOTgxTDE2LjUyNTQsMzQuNThsLTQuMDAxNSw0LjAwMTFhLjc1Ljc1LDAsMSwwLDEuMDYwNiwxLjA2bDQuMDAxNC00LjAwMSw0LjAzNzUsNC4wMzczTDE3LjYyMjEsNDMuNjhBLjc1Ljc1LDAsMSwwLDE4LjY4MjYsNDQuNzRsNC4wMDE0LTQuMDAxOCw0LjAzNzksNC4wMzc3TDIyLjcyLDQ4Ljc3NzNhLjc1Ljc1LDAsMSwwLDEuMDYwNiwxLjA2MDZsNC4wMDE2LTQuMDAxMiwxLjQwODUsMS40MDg0YTIuODE1NywyLjgxNTcsMCwwLDAsMy45ODEsMEwzNC41OCw0NS44MzY5bDQuMDAxLDQuMDAxYS43NS43NSwwLDAsMCwxLjA2LTEuMDYwNmwtNC4wMDEtNC4wMDA5LDQuMDM3Ni00LjAzNzZMNDMuNjgsNDQuNzRBLjc1Ljc1LDAsMCwwLDQ0Ljc0LDQzLjY4bC00LjAwMTQtNC4wMDE1LDQuMDM3Ni00LjAzNzYsNC4wMDA5LDQuMDAxYS43NS43NSwwLDEsMCwxLjA2MDYtMS4wNlpNMzIuMTExMyw0Ni4xODQ2YTEuMzQ4MSwxLjM0ODEsMCwwLDEtMS44NiwwbC03LjAzNjctNy4wMzY0LDAtLjAwMDctLjAwMDgtLjAwMDUtNy4wMzU5LTcuMDM1N2ExLjMxNSwxLjMxNSwwLDAsMSwwLTEuODZMMzAuMjUxNSwxNi4xNzc3YTEuMzE1LDEuMzE1LDAsMCwxLDEuODYsMGw3LjAzNTcsNy4wMzU5LjAwMDUuMDAwOC4wMDA3LDAsNy4wMzY0LDcuMDM2N2ExLjMxNjIsMS4zMTYyLDAsMCwxLDAsMS44NkwzOS4xNSwzOS4xNDU1bC0uMDAyOS4wMDItLjAwMi4wMDI5WiIgdHJhbnNmb3JtPSJ0cmFuc2xhdGUoLTEwLjg4NjMgLTEwLjg4NjMpIi8+PHBhdGggZD0iTTQ0LjE3MzgsMzAuNjUwOSwzMS43MTE0LDE4LjE4ODVhLjc1Ljc1LDAsMCwwLTEuMDYwNSwwTDE4LjE4ODUsMzAuNjUwOWEuNzUuNzUsMCwwLDAsMCwxLjA2MDVMMzAuNjUwOSw0NC4xNzM4YS43NDk1Ljc0OTUsMCwwLDAsMS4wNjA1LDBMNDQuMTczOCwzMS43MTE0QS43NS43NSwwLDAsMCw0NC4xNzM4LDMwLjY1MDlaTTMxLjE4MTIsNDIuNTgzLDE5Ljc3OTMsMzEuMTgxMiwzMS4xODEyLDE5Ljc3OTMsNDIuNTgzLDMxLjE4MTJaIiB0cmFuc2Zvcm09InRyYW5zbGF0ZSgtMTAuODg2MyAtMTAuODg2MykiLz48cGF0aCBkPSJNMjYuNzQzMiwzMy4zNTQ1YTIuMzMxMywyLjMzMTMsMCwwLDEtLjgzMzUtLjE0NTUsMiwyLDAsMCwxLS42NjI2LS40MSwxLjg4MzcsMS44ODM3LDAsMCwxLS40NC0uNjMsMS45OTE0LDEuOTkxNCwwLDAsMS0uMTYtLjgwNTZ2LS4wMTA4YTEuOTg4NywxLjk4ODcsMCwwLDEsLjU4NTQtMS40MjE4LDEuOTUsMS45NSwwLDAsMSwuNjU1My0uNDI2MywyLjE5MzMsMi4xOTMzLDAsMCwxLC44MjcxLS4xNTM4LDIuMzcsMi4zNywwLDAsMSwuODgyOC4xNDg0LDIuNDA5MSwyLjQwOTEsMCwwLDEsLjY3OTIuNDEyMWwtLjYyNjkuNzUzOWExLjcsMS43LDAsMCwwLS40MjYzLS4yNywxLjI2MDYsMS4yNjA2LDAsMCwwLS41MDI5LS4wOTM3LjkxMTYuOTExNiwwLDAsMC0uMzg4Mi4wODI1Ljk3NjUuOTc2NSwwLDAsMC0uMzEuMjI1NiwxLjA3NzcsMS4wNzc3LDAsMCwwLS4yMDkuMzM1NCwxLjEwMjUsMS4xMDI1LDAsMCwwLS4wNzcyLjQxMjZ2LjAxMDhhMS4xNjQsMS4xNjQsMCwwLDAsLjA3NzcuNDI5Mi45Ny45NywwLDAsMCwuMjE3Ny4zMzg4LDEuMDI2MywxLjAyNjMsMCwwLDAsLjMzMTEuMjIsMS4wODkyLDEuMDg5MiwwLDAsMCwuNDIyNC4wOCwxLjEwMjUsMS4xMDI1LDAsMCwwLC42MTc2LS4xNnYtLjQ2NzNIMjYuNjQ0di0uNzgxM2gxLjc3MXYxLjczMjlhMi44MTEsMi44MTEsMCwwLDEtLjcyNi40MjM5QTIuNDkyNSwyLjQ5MjUsMCwwLDEsMjYuNzQzMiwzMy4zNTQ1WiIgdHJhbnNmb3JtPSJ0cmFuc2xhdGUoLTEwLjg4NjMgLTEwLjg4NjMpIi8+PHBhdGggZD0iTTI5LjQ3NjEsMjkuNDI3MmgxLjY1YTIuMjQ2NiwyLjI0NjYsMCwwLDEsLjY2LjA5MDksMS40NCwxLjQ0LDAsMCwxLC41MDU5LjI2NDEsMS4xNTA3LDEuMTUwNywwLDAsMSwuMzIxMy40MjYzLDEuMzksMS4zOSwwLDAsMSwuMTEzMy41NzE4di4wMTEyYTEuMzYzNiwxLjM2MzYsMCwwLDEtLjEyNDEuNTk5MSwxLjIxNzksMS4yMTc5LDAsMCwxLS4zNDM3LjQzNDYsMS40ODEsMS40ODEsMCwwLDEtLjUyNDkuMjY0NiwyLjM4NjUsMi4zODY1LDAsMCwxLS42NjI2LjA4NzloLS41Mjc4djEuMUgyOS40NzYxWm0xLjU3MzIsMS45MTQxYS42OC42OCwwLDAsMCwuNDQ4My0uMTM1Mi40NTQ3LjQ1NDcsMCwwLDAsLjE2MjEtLjM2Nzd2LS4wMTEzYS40NTcyLjQ1NzIsMCwwLDAtLjE2MjEtLjM3ODkuNzEuNzEsMCwwLDAtLjQ1MzctLjEzaC0uNXYxLjAyMjlaIiB0cmFuc2Zvcm09InRyYW5zbGF0ZSgtMTAuODg2MyAtMTAuODg2MykiLz48cGF0aCBkPSJNMzUuMzc3OSwzMy4zNDg2YTIuNDI3LDIuNDI3LDAsMCwxLS43NDIyLS4xMDQ1LDEuNDM3NCwxLjQzNzQsMCwwLDEtLjU2MTUtLjMyMTIsMS40MjIsMS40MjIsMCwwLDEtLjM1NDUtLjU1LDIuMjM2MSwyLjIzNjEsMCwwLDEtLjEyNC0uNzg0MVYyOS40MjcyaDEuMDg4OXYyLjE0YS44NzExLjg3MTEsMCwwLDAsLjE5MTQuNjE4Ni42NzM1LjY3MzUsMCwwLDAsLjUxMjcuMjAxMi42OTM2LjY5MzYsMCwwLDAsLjUxMzYtLjE5MjQuODI1NS44MjU1LDAsMCwwLC4xOTA1LS42di0yLjE2N2gxLjA4ODh2Mi4xMzQzYTIuMjYyMiwyLjI2MjIsMCwwLDEtLjEyODkuODA1NywxLjQ0MTksMS40NDE5LDAsMCwxLS4zNjMyLjU1NTcsMS40NTc2LDEuNDU3NiwwLDAsMS0uNTY2NS4zMjEyQTIuNDU0NSwyLjQ1NDUsMCwwLDEsMzUuMzc3OSwzMy4zNDg2WiIgdHJhbnNmb3JtPSJ0cmFuc2xhdGUoLTEwLjg4NjMgLTEwLjg4NjMpIi8+PC9nPjxnIGlkPSJFYmVuZV80IiBkYXRhLW5hbWU9IkViZW5lIDQiPjxyZWN0IGNsYXNzPSJjbHMtMSIgd2lkdGg9IjQwLjU4OTMiIGhlaWdodD0iNDAuNTg5MyIvPjwvZz48L3N2Zz4=" vertex="1" parent="1">
          <mxGeometry x="80" y="630" width="280" height="280" as="geometry" />
        </mxCell>
        <mxCell id="XSCT2WYPgkQ0aujzjNFR-20" value="" style="shape=image;verticalLabelPosition=bottom;verticalAlign=top;imageAspect=0;aspect=fixed;image=data:image/svg+xml,PHN2ZyB4bWxucz0iaHR0cDovL3d3dy53My5vcmcvMjAwMC9zdmciIHZpZXdCb3g9IjAgMCA2Mi4zNjE5OTk1MTE3MTg3NSA2Mi4zNjE5OTk1MTE3MTg3NSIgd2lkdGg9IjYyLjM2MTk5OTUxMTcxODc1IiBoZWlnaHQ9IjYyLjM2MTk5OTUxMTcxODc1Ij48cGF0aCBzdHlsZT0iZmlsbDojZGEyOTFjIiBkPSJNMzEuMzE1IDYyLjM2MkMxMy40ODMgNjIuMzYyIDAgNDcuNTkgMCAzMS4zMTUgMCAxMi42MzMgMTUuNTU3IDAgMzEuMDggMGMxOC42MDMgMCAzMS4yODIgMTUuMzQgMzEuMjgyIDMwLjk0NyAwIDE5LjA1LTE1LjY1NyAzMS40MTUtMzEuMDQ3IDMxLjQxNSIvPjxwYXRoIHN0eWxlPSJmaWxsOiNmZmYiIGQ9Ik0zMS4xODEgMTMuNjdjOC44NTggMCAxNi4wNjQgNy4yMDUgMTYuMDY0IDE2LjA2M3YzLjg5OGExIDEgMCAxIDAgMiAwdi0zLjg5OGMwLTkuOTc3LTguMDg3LTE4LjA2NC0xOC4wNjQtMTguMDY0cy0xOC4wNjQgOC4wODctMTguMDY0IDE4LjA2NHYzLjg5N2ExIDEgMCAxIDAgMiAwdi0zLjg5N2MwLTguODU4IDcuMjA3LTE2LjA2NCAxNi4wNjQtMTYuMDY0Ii8+PHBhdGggc3R5bGU9ImZpbGw6I2ZmZiIgZD0iTTE4Ljc0NyAyOC4xNTZjLS44OTYgMC0xLjYyNS43MjktMS42MjUgMS42MjV2OS42OTNjMCAuODk2LjcyOSAxLjYyNSAxLjYyNSAxLjYyNXMxLjYyNS0uNzMgMS42MjUtMS42MjVWMjkuNzhjMC0uODk2LS43My0xLjYyNS0xLjYyNS0xLjYyNU00NS4yNCAyOS43OHY5LjY5YzAgLjY3LS40MSAxLjI1LS45OSAxLjUtLjMzIDQuODUtNC4zNyA4LjY5LTkuMyA4LjY5YTEuNjIgMS42MiAwIDAgMS0xLjUgMS4wMSAxLjYzIDEuNjMgMCAwIDEgMC0zLjI2Yy42NyAwIDEuMjUuNDEgMS41IDEgNC4yNCAwIDcuNzItMy4yOCA4LjA0LTcuNDQtLjU5LS4yNS0xLS44My0xLTEuNXYtOS42OWMwLS45LjczLTEuNjIgMS42My0xLjYyLjg5IDAgMS42Mi43MiAxLjYyIDEuNjIiLz48L3N2Zz4=" vertex="1" parent="1">
          <mxGeometry x="686" y="2060" width="280" height="280" as="geometry" />
        </mxCell>
        <mxCell id="XSCT2WYPgkQ0aujzjNFR-21" value="" style="shape=image;verticalLabelPosition=bottom;verticalAlign=top;imageAspect=0;aspect=fixed;image=data:image/svg+xml,PHN2ZyB4bWxucz0iaHR0cDovL3d3dy53My5vcmcvMjAwMC9zdmciIHZpZXdCb3g9IjAgMCA2Mi4zNjE5OTk1MTE3MTg3NSA2Mi4zNjE5OTk1MTE3MTg3NSIgd2lkdGg9IjYyLjM2MTk5OTUxMTcxODc1IiBoZWlnaHQ9IjYyLjM2MTk5OTUxMTcxODc1Ij48cGF0aCBzdHlsZT0iZmlsbDojZGEyOTFjIiBkPSJNMzEuMzE1IDYyLjM2MkMxMy40ODMgNjIuMzYyIDAgNDcuNTkgMCAzMS4zMTUgMCAxMi42MzMgMTUuNTU3IDAgMzEuMDggMGMxOC42MDIgMCAzMS4yODIgMTUuMzQgMzEuMjgyIDMwLjk0NyAwIDE5LjA1LTE1LjY1NyAzMS40MTUtMzEuMDQ3IDMxLjQxNSIvPjxwYXRoIHN0eWxlPSJmaWxsOiNmZmYiIGQ9Im0zMS4xODEgMjUuNzktNS41NzEgOS42NDloLjc5Nmw0Ljc3NS04LjI3djEuMzc4bC0zLjk4IDYuODkyaC43OTdsMy4xODMtNS41MTR2MS4zNzlsLTIuMzg3IDQuMTM1aC43OTZsMS41OTEtMi43NTd2MS4zNzlsLS43OTYgMS4zNzhoNi4zNjd6Ii8+PC9zdmc+" vertex="1" parent="1">
          <mxGeometry x="150" y="2130" width="140" height="140" as="geometry" />
        </mxCell>
        <mxCell id="XSCT2WYPgkQ0aujzjNFR-27" value="" style="shape=image;verticalLabelPosition=bottom;verticalAlign=top;imageAspect=0;aspect=fixed;image=data:image/svg+xml,PHN2ZyB4bWxucz0iaHR0cDovL3d3dy53My5vcmcvMjAwMC9zdmciIHZpZXdCb3g9IjAgMCA2Mi4zNjE5OTk1MTE3MTg3NSA2Mi4zNjE5OTk1MTE3MTg3NSIgd2lkdGg9IjYyLjM2MTk5OTUxMTcxODc1IiBoZWlnaHQ9IjYyLjM2MTk5OTUxMTcxODc1Ij48cGF0aCBzdHlsZT0iZmlsbDojZGEyOTFjIiBkPSJNMzEuMzE1IDYyLjM2MkMxMy40ODMgNjIuMzYyIDAgNDcuNTkgMCAzMS4zMTUgMCAxMi42MzMgMTUuNTU3IDAgMzEuMDggMGMxOC42MDIgMCAzMS4yODIgMTUuMzQgMzEuMjgyIDMwLjk0NyAwIDE5LjA1LTE1LjY1NyAzMS40MTUtMzEuMDQ3IDMxLjQxNSIvPjxwYXRoIHN0eWxlPSJmaWxsOiNmZmYiIGQ9Im0zMS4xOCAxOS4xMjItNS41NyA5LjY1aC43OTVMMzEuMTggMjAuNXYxLjM3OGwtMy45OCA2Ljg5M2guNzk3bDMuMTgzLTUuNTE0djEuMzc5bC0yLjM4NyA0LjEzNWguNzk2bDEuNTkxLTIuNzU3djEuMzc4bC0uNzk2IDEuMzc5aDYuMzY4em0tNS44OTkgMTAuMjE3LTUuNTcxIDkuNjQ5aC43OTZsNC43NzUtOC4yN3YxLjM3OGwtMy45OCA2Ljg5MmguNzk3bDMuMTgzLTUuNTE0djEuMzc5bC0yLjM4OCA0LjEzNWguNzk2bDEuNTkyLTIuNzU3djEuMzc4bC0uNzk2IDEuMzc5aDYuMzY4em0xMS43ODkgMC01LjU3IDkuNjQ5aC43OTVsNC43NzYtOC4yN3YxLjM3OGwtMy45OCA2Ljg5MmguNzk2bDMuMTg0LTUuNTE0djEuMzc5bC0yLjM4OCA0LjEzNWguNzk2bDEuNTkyLTIuNzU3djEuMzc4bC0uNzk2IDEuMzc5aDYuMzY3eiIvPjwvc3ZnPg==" vertex="1" parent="1">
          <mxGeometry x="420" y="2130" width="140" height="140" as="geometry" />
        </mxCell>
        <mxCell id="XSCT2WYPgkQ0aujzjNFR-28" value="" style="shape=image;verticalLabelPosition=bottom;verticalAlign=top;imageAspect=0;aspect=fixed;image=data:image/svg+xml,PHN2ZyB4bWxucz0iaHR0cDovL3d3dy53My5vcmcvMjAwMC9zdmciIHZpZXdCb3g9IjAgMCA2Mi4zNjE5OTk1MTE3MTg3NSA2Mi4zNjE5OTk1MTE3MTg3NSIgd2lkdGg9IjYyLjM2MTk5OTUxMTcxODc1IiBoZWlnaHQ9IjYyLjM2MTk5OTUxMTcxODc1Ij48cGF0aCBzdHlsZT0iZmlsbDojZGEyOTFjIiBkPSJNMzEuMzE1IDYyLjM2MkMxMy40ODMgNjIuMzYyIDAgNDcuNTkgMCAzMS4zMTUgMCAxMi42MzMgMTUuNTU3IDAgMzEuMDggMGMxOC42MDIgMCAzMS4yODIgMTUuMzQgMzEuMjgyIDMwLjk0NyAwIDE5LjA1LTE1LjY1NyAzMS40MTUtMzEuMDQ3IDMxLjQxNSIvPjxwYXRoIHN0eWxlPSJmaWxsOiNmZmYiIGQ9Im0zMS4xODEgMTMuMzA2LTUuNTcxIDkuNjQ5aC43OTZsNC43NzUtOC4yN3YxLjM3OGwtMy45OCA2Ljg5MmguNzk3bDMuMTgzLTUuNTE0djEuMzc5bC0yLjM4NyA0LjEzNWguNzk2bDEuNTkxLTIuNzU3djEuMzc5bC0uNzk2IDEuMzc4aDYuMzY3em0tNS44OTkgMTAuMjE2LTUuNTcxIDkuNjVoLjc5Nmw0Ljc3NS04LjI3MnYxLjM3OWwtMy45OCA2Ljg5MmguNzk2bDMuMTg0LTUuNTE0djEuMzc5bC0yLjM4OCA0LjEzNWguNzk2bDEuNTkyLTIuNzU2djEuMzc4bC0uNzk2IDEuMzc4aDYuMzY3em0xMS43OSAwLTUuNTcyIDkuNjVoLjc5Nmw0Ljc3Ni04LjI3MnYxLjM3OWwtMy45OCA2Ljg5MmguNzk2bDMuMTg0LTUuNTE0djEuMzc5bC0yLjM4OCA0LjEzNWguNzk2bDEuNTkyLTIuNzU2djEuMzc4bC0uNzk2IDEuMzc4aDYuMzY3em0tMTcuNjggMTAuMjE2LTUuNTcyIDkuNjVoLjc5Nmw0Ljc3Ni04LjI3MXYxLjM3OGwtMy45OCA2Ljg5MmguNzk2bDMuMTg0LTUuNTE0djEuMzc5bC0yLjM4OCA0LjEzNWguNzk2bDEuNTkyLTIuNzU3djEuMzc5bC0uNzk2IDEuMzc4aDYuMzY3em0xMS43ODkgMC01LjU3MSA5LjY1aC43OTZsNC43NzUtOC4yNzF2MS4zNzhsLTMuOTggNi44OTJoLjc5N2wzLjE4My01LjUxNHYxLjM3OWwtMi4zODcgNC4xMzVoLjc5NmwxLjU5MS0yLjc1N3YxLjM3OWwtLjc5NiAxLjM3OGg2LjM2OHptMTEuNzg5IDAtNS41NzEgOS42NWguNzk2bDQuNzc2LTguMjcxdjEuMzc4bC0zLjk4IDYuODkyaC43OTZsMy4xODQtNS41MTR2MS4zNzlsLTIuMzg4IDQuMTM1aC43OTZsMS41OTItMi43NTd2MS4zNzlsLS43OTYgMS4zNzhoNi4zNjd6Ii8+PC9zdmc+" vertex="1" parent="1">
          <mxGeometry x="1090" y="2130" width="140" height="140" as="geometry" />
        </mxCell>
        <mxCell id="XSCT2WYPgkQ0aujzjNFR-29" value="" style="shape=image;verticalLabelPosition=bottom;verticalAlign=top;imageAspect=0;aspect=fixed;image=data:image/svg+xml,PHN2ZyB4bWxucz0iaHR0cDovL3d3dy53My5vcmcvMjAwMC9zdmciIHZpZXdCb3g9IjAgMCA2Mi4zNjE5OTk1MTE3MTg3NSA2Mi4zNjE5OTk1MTE3MTg3NSIgd2lkdGg9IjYyLjM2MTk5OTUxMTcxODc1IiBoZWlnaHQ9IjYyLjM2MTk5OTUxMTcxODc1Ij48cGF0aCBzdHlsZT0iZmlsbDojZGEyOTFjIiBkPSJNMzEuMzE1IDYyLjM2MkMxMy40ODMgNjIuMzYyIDAgNDcuNTkgMCAzMS4zMTUgMCAxMi42MzMgMTUuNTU3IDAgMzEuMDggMGMxOC42MDIgMCAzMS4yODIgMTUuMzQgMzEuMjgyIDMwLjk0NyAwIDE5LjA1LTE1LjY1NyAzMS40MTUtMzEuMDQ3IDMxLjQxNSIvPjxwYXRoIHN0eWxlPSJmaWxsOiNmZmYiIGQ9Im0zMS4xODEgNy4xMzUtNS41NzEgOS42NDloLjc5Nmw0Ljc3NS04LjI3djEuMzc4bC0zLjk4IDYuODkyaC43OTdsMy4xODMtNS41MTR2MS4zNzlsLTIuMzg3IDQuMTM1aC43OTZsMS41OTEtMi43NTd2MS4zNzlsLS43OTYgMS4zNzhoNi4zNjd6TTI1LjI4MiAxNy4zNSAxOS43MTEgMjdoLjc5Nmw0Ljc3NS04LjI3djEuMzc4TDIxLjMwMiAyN2guNzk2bDMuMTg0LTUuNTE0djEuMzc5TDIyLjg5NCAyN2guNzk2bDEuNTkyLTIuNzU3djEuMzc5TDI0LjQ4NiAyN2g2LjM2N3ptMTEuNzkgMEwzMS41IDI3aC43OTZsNC43NzYtOC4yN3YxLjM3OEwzMy4wOTIgMjdoLjc5NmwzLjE4NC01LjUxNHYxLjM3OUwzNC42ODQgMjdoLjc5NmwxLjU5Mi0yLjc1N3YxLjM3OUwzNi4yNzYgMjdoNi4zNjd6bS0xNy42OCAxMC4yMTctNS41NzIgOS42NWguNzk2bDQuNzc2LTguMjcydjEuMzc5bC0zLjk4IDYuODkyaC43OTZsMy4xODQtNS41MTR2MS4zNzlsLTIuMzg4IDQuMTM1aC43OTZsMS41OTItMi43NTd2MS4zNzlsLS43OTYgMS4zNzhoNi4zNjd6bTExLjc4OSAwLTUuNTcxIDkuNjVoLjc5Nmw0Ljc3NS04LjI3MnYxLjM3OWwtMy45OCA2Ljg5MmguNzk3bDMuMTgzLTUuNTE0djEuMzc5bC0yLjM4NyA0LjEzNWguNzk2bDEuNTkxLTIuNzU3djEuMzc5bC0uNzk2IDEuMzc4aDYuMzY4em0xMS43ODkgMC01LjU3MSA5LjY1aC43OTZsNC43NzYtOC4yNzJ2MS4zNzlsLTMuOTggNi44OTJoLjc5NmwzLjE4NC01LjUxNHYxLjM3OWwtMi4zODggNC4xMzVoLjc5NmwxLjU5Mi0yLjc1N3YxLjM3OWwtLjc5NiAxLjM3OGg2LjM2N3pNMTMuNDgxIDM3Ljc4M2wtNS41NzEgOS42NWguNzk2bDQuNzc1LTguMjcydjEuMzc5bC0zLjk4IDYuODkyaC43OTdsMy4xODMtNS41MTR2MS4zNzlsLTIuMzg4IDQuMTM1aC43OTZsMS41OTItMi43NTZ2MS4zNzhsLS43OTYgMS4zNzhoNi4zNjh6bTExLjgxNiAwLTUuNTcxIDkuNjVoLjc5Nmw0Ljc3NS04LjI3MnYxLjM3OWwtMy45OCA2Ljg5MmguNzk2bDMuMTg0LTUuNTE0djEuMzc5bC0yLjM4OCA0LjEzNWguNzk2bDEuNTkyLTIuNzU2djEuMzc4bC0uNzk2IDEuMzc4aDYuMzY4em0xMS43ODkgMC01LjU3MSA5LjY1aC43OTZsNC43NzUtOC4yNzJ2MS4zNzlsLTMuOTggNi44OTJoLjc5N2wzLjE4My01LjUxNHYxLjM3OUwzNC43IDQ3LjQzMmguNzk2bDEuNTkxLTIuNzU2djEuMzc4bC0uNzk1IDEuMzc4aDYuMzY3em0xMS43ODggMC01LjU3MiA5LjY1aC43OTZsNC43NzYtOC4yNzJ2MS4zNzlsLTMuOTggNi44OTJoLjc5NmwzLjE4NC01LjUxNHYxLjM3OWwtMi4zODggNC4xMzVoLjc5NmwxLjU5Mi0yLjc1NnYxLjM3OGwtLjc5NiAxLjM3OGg2LjM2N3oiLz48L3N2Zz4=" vertex="1" parent="1">
          <mxGeometry x="1350" y="2130" width="140" height="140" as="geometry" />
        </mxCell>
        <mxCell id="XSCT2WYPgkQ0aujzjNFR-30" value="" style="shape=image;verticalLabelPosition=bottom;verticalAlign=top;imageAspect=0;aspect=fixed;image=data:image/svg+xml,PHN2ZyB4bWxucz0iaHR0cDovL3d3dy53My5vcmcvMjAwMC9zdmciIHZpZXdCb3g9Ii0wLjA0MDAwMDAwMjgzMTIyMDYzIDAuMDQ0MDAwMDAzNDg2ODcxNzIgNjIuMzYxOTk5NTExNzE4NzUgNjIuMzYzMDAyNzc3MDk5NjEiIHdpZHRoPSI2Mi4zNjE5OTk1MTE3MTg3NSIgaGVpZ2h0PSI2Mi4zNjMwMDI3NzcwOTk2MSI+PHBhdGggc3R5bGU9ImZpbGw6I2RhMjkxYyIgZD0iTTMxLjI3NSA2Mi40MDdDMTMuNDQzIDYyLjQwNy0uMDQgNDcuNjM1LS4wNCAzMS4zNTktLjA0IDEyLjY3NyAxNS41MTcuMDQ0IDMxLjA0LjA0NGMxOC42MDIgMCAzMS4yODIgMTUuMzQgMzEuMjgyIDMwLjk0OCAwIDE5LjA1LTE1LjY1NyAzMS40MTUtMzEuMDQ3IDMxLjQxNSIvPjxwYXRoIHN0eWxlPSJmaWxsOiNmZmYiIGQ9Ik0yMS4xNDcgNDIuNzI2Yy0zLjI0MiAwLTUuOTA0LTEuOTc0LTYuNjkxLTQuOTM1YS4xNTYuMTU2IDAgMCAwLS4xNS0uMTE3aC0xLjk0M2EuMTYuMTYgMCAwIDEtLjE1OS0uMTZ2LS41NTJhLjE2LjE2IDAgMCAxIC4xNi0uMTU5aDEuNzIxYS4xNTYuMTU2IDAgMCAwIC4xNTYtLjE3IDguNSA4LjUgMCAwIDEgMC0xLjM4LjE1Ni4xNTYgMCAwIDAtLjE1Ni0uMTdoLTEuNzIyYS4xNi4xNiAwIDAgMS0uMTU5LS4xNnYtLjU1MmEuMTYuMTYgMCAwIDEgLjE2LS4xNmgxLjk0MmEuMTU2LjE1NiAwIDAgMCAuMTUtLjExNmMuNzg3LTIuOTYxIDMuNDQ5LTQuOTM1IDYuNjkxLTQuOTM1LjM5NCAwIDIuOTg5LjAzNiA0LjcyNCAxLjggMCAwIC4xNTQuMTIzLjAxNC4yNmwtLjUzNC41MzNjLS4xMzMuMTMzLS4yNC4wMTgtLjI2Mi0uMDA0IDAgMC0uNTMtLjUwNi0xLjE3OC0uODU1LS40OC0uMjU3LTEuNTQxLS42Mi0yLjcyNi0uNjItMi41MjIgMC00LjY2NSAxLjQ4Mi01LjQ0OCAzLjcyNWEuMTYyLjE2MiAwIDAgMCAuMTU0LjIxM2g2LjQzNGMuMDg4IDAgLjE1OS4wNzEuMTU5LjE1OXYuNTUyYS4xNi4xNiAwIDAgMS0uMTYuMTZoLTYuNzAzYS4xNi4xNiAwIDAgMC0uMTYuMTM3IDYgNiAwIDAgMC0uMDM5LjcyM2MwIC4yNy4wMTMuNTA1LjA0LjcyMy4wMDkuMDguMDc5LjEzOC4xNTkuMTM4aDYuNzA0Yy4wODggMCAuMTU5LjA3LjE1OS4xNTl2LjU1MmEuMTYuMTYgMCAwIDEtLjE2LjE2aC02LjQzM2MtLjExIDAtLjE5LjEwOS0uMTU0LjIxMi43ODMgMi4yNDMgMi45MjYgMy43MjQgNS40NDggMy43MjQgMS41NjEgMCAyLjgyOS0uNDc4IDMuODctMS40Ni4wMjktLjAyOC4xNDgtLjE4NC4yOTgtLjAzNWwuNTQ0LjU0M2MuMTM0LjEzNS0uMDUuMjcyLS4wNS4yNzItMS4xNTIgMS4xNTktMi44MTYgMS43OTUtNC43IDEuNzk1Ii8+PHBhdGggc3R5bGU9ImZpbGw6I2ZmZiIgZD0ibTQ3Ljc5IDM4Ljc3Ny0xLjAzOS0xLjAzOWMtLjI4NS0uMjg1LS41MTQuMDE0LS41Ny4wNjctMS45ODkgMS44NzctNC40MSAyLjc5MS03LjM5NSAyLjc5MS00LjgyIDAtOC45MTQtMi44MzItMTAuNDExLTcuMTE3YS4zMS4zMSAwIDAgMSAuMjk0LS40MDdoMTIuMjk2YS4zMDQuMzA0IDAgMCAwIC4zMDMtLjMwNHYtMS4wNTZhLjMwNC4zMDQgMCAwIDAtLjMwNC0uMzA0aC0xMi44MWEuMzA0LjMwNCAwIDAgMS0uMzA1LS4yNjNjLS4wNS0uNDE3LS4wNzUtLjg2Ny0uMDc1LTEuMzgycy4wMjQtLjk2My4wNzUtMS4zOGEuMzAzLjMwMyAwIDAgMSAuMzA1LS4yNjRoMTIuODEyYS4zMDQuMzA0IDAgMCAwIC4zMDMtLjMwNFYyNi43NmEuMzA0LjMwNCAwIDAgMC0uMzA0LS4zMDRIMjguNjdhLjMxLjMxIDAgMCAxLS4yOTQtLjQwNmMxLjQ5Ny00LjI4NiA1LjU5Mi03LjExOCAxMC40MS03LjExOCAyLjI2NSAwIDQuMjkzLjY5MiA1LjIxIDEuMTg0IDEuMjQuNjY2IDIuMjUyIDEuNjM0IDIuMjUyIDEuNjM0LjA0Mi4wNC4yNDcuMjYuNTAyLjAwNmwxLjAxOS0xLjAxOGMuMjU2LS4yNTcuMDM1LS40My4wMDMtLjQ2My0uMDI1LS4wMjYuMDE1LjAxMy0uMDMtLjAzMy0zLjMxNS0zLjM3MS04LjI3NC0zLjQ0LTkuMDI3LTMuNDQtNi4xOTcgMC0xMS4yODMgMy43NzItMTIuNzg3IDkuNDNhLjMuMyAwIDAgMS0uMjg3LjIyNGgtMy43MTJhLjMwNC4zMDQgMCAwIDAtLjMwNC4zMDR2MS4wNTZjMCAuMTY4LjEzNi4zMDQuMzA0LjMwNGgzLjI5YS4zLjMgMCAwIDEgLjI5OC4zMjZjLS4wMzUuNDMyLS4wNTIuODY4LS4wNTIgMS4zMThsLjAwMi4wNTZjLjI5LjIuNTczLjQyMi44MzcuNjlhLjc4Ljc4IDAgMCAxIC4wMjMgMS4xNTNsLS4yNDguMjQ4LS4yODQuMjg0YS44LjggMCAwIDEtLjU3Mi4yNDYuOC44IDAgMCAxLS41NjUtLjIzOSA1LjYgNS42IDAgMCAwLTEuMDQyLS43NTZsLS4wNzQtLjAzN2gtMS42MTNhLjMwNC4zMDQgMCAwIDAtLjMwNC4zMDR2MS4wNTZjMCAuMTY4LjEzNi4zMDQuMzA0LjMwNGgzLjcxMmMuMTM2IDAgLjI1Mi4wOTIuMjg3LjIyNCAxLjUwNCA1LjY1OCA2LjU5IDkuNDMgMTIuNzg4IDkuNDMgMy42IDAgNi43OC0xLjIxNSA4Ljk4MS0zLjQzIDAgMCAuMzUyLS4yNjIuMDk1LS41MTlaIi8+PC9zdmc+" vertex="1" parent="1">
          <mxGeometry x="460" y="570" width="140" height="140" as="geometry" />
        </mxCell>
        <mxCell id="XSCT2WYPgkQ0aujzjNFR-31" value="" style="shape=image;verticalLabelPosition=bottom;verticalAlign=top;imageAspect=0;aspect=fixed;image=data:image/svg+xml,PHN2ZyB4bWxucz0iaHR0cDovL3d3dy53My5vcmcvMjAwMC9zdmciIHZpZXdCb3g9Ii0wLjAxMDAwMDAwMDcwNzgwNTE1NyAtMC4wMDcwMDAwMDAyMTYwNjY4MzcgNjIuMzYxOTk1Njk3MDIxNDg0IDYyLjM2MjAwMzMyNjQxNjAxNiIgd2lkdGg9IjYyLjM2MTk5NTY5NzAyMTQ4NCIgaGVpZ2h0PSI2Mi4zNjIwMDMzMjY0MTYwMTYiPjxwYXRoIHN0eWxlPSJmaWxsOiNkYTI5MWMiIGQ9Ik0zMS4zMDQgNjIuMzU1QzEzLjQ3MiA2Mi4zNTUtLjAxIDQ3LjU4My0uMDEgMzEuMzA4LS4wMSAxMi42MjYgMTUuNTQ3LS4wMDcgMzEuMDctLjAwN2MxOC42MDIgMCAzMS4yODIgMTUuMzQgMzEuMjgyIDMwLjk0NyAwIDE5LjA1LTE1LjY1OCAzMS40MTUtMzEuMDQ4IDMxLjQxNSIvPjxwYXRoIHN0eWxlPSJmaWxsOiNmZmYiIGQ9Im0yOC4xNzggMzUuMTktNC4xIDExLjM4OGMtLjEwMy4yOS0uMzEyLjUyMi0uNTkuNjU0bC0uNjAyLjI4OGEuNjk3LjY5NyAwIDAgMS0uOTI4LS4zMjhsLS4zMTgtLjY2NmExIDEgMCAwIDEtLjA0LS43NTNsLjI5Mi0uODI1LS40My0uOS45LS40My4zODctMS4wOTMtLjQzLS45LjktLjQyOS4zODctMS4wOTQtLjQzLS45LjM3OS0uMThjLjMzNi0uMTYuNTg4LS40NC43MTItLjc5bDEuMjAyLTMuNGMuMTQxLS40LjAzNS0uODU3LS4yOTMtMS4xMjZhNS43IDUuNyAwIDAgMS0yLjA5Mi00LjYxNSA1LjcgNS43IDAgMCAxIDEuODM4LTQuMDI2IDUuNiA1LjYgMCAwIDEgMi43OTQtMS40MmwuMDMzLS4wMzNhNy40IDcuNCAwIDAgMSAxLjkyMi0xLjI1N2MtLjE4Ny0uMDI1LS4zNDMtLjA0OC0uNTMyLS4wNTZhNi45NCA2Ljk0IDAgMCAwLTUuMDY2IDEuODQ5IDYuOTUgNi45NSAwIDAgMC0yLjIzOCA0LjkwMyA2Ljk0IDYuOTQgMCAwIDAgMi4yNTMgNS4zNjUuMzEuMzEgMCAwIDEgLjA4NS4zM2wtMS4wODQgMy4wNjctLjA3MS4wOC0xLjM3Ny42NTlhLjE0Ny4xNDcgMCAwIDAtLjA2OS4xOTVsLjY4MyAxLjQyNy0uMDQyLjExNy0xLjQzMi42ODRhLjE0LjE0IDAgMCAwLS4wNjcuMTlsLjY4NCAxLjQzLS4wNDIuMTE5LTEuNDIuNjc4YS4xNTUuMTU1IDAgMCAwLS4wNzMuMjA2bC42NzggMS40MjEtLjEyLjMzOGEyLjI0IDIuMjQgMCAwIDAgLjA5IDEuNzFsLjMxOC42NjVhMS45NDUgMS45NDUgMCAwIDAgMi41OTYuOTE2bC42MDUtLjI5YTIuNCAyLjQgMCAwIDAgMS4yMjUtMS4zNjNsMy45OTItMTEuMDgzYTcuNiA3LjYgMCAwIDEtMS4wNjktLjcyM20xMC45MTQgOS45ODYiLz48cGF0aCBzdHlsZT0iZmlsbDojZmZmIiBkPSJtNDMuNDg2IDQ0Ljk4Ni01LjM5Ni0xMC44NmEuMjYuMjYgMCAwIDEgLjA0Mi0uMjk1YzIuMi0yLjQ3NiAyLjMzOS02LjE5LjMzMi04Ljg0My0uMTc3LjMxLS40My43MDgtLjc1IDEuMS4xMzYuMjA1LjI1OS40MS4zNjcuNjM3YTUuNzQ1IDUuNzQ1IDAgMCAxLTEuMDYgNi40NjYgMS4wNSAxLjA1IDAgMCAwLS4yMDIgMS4xOGwuMjguNTY1LS4wMDUuMDAyIDUuMjc3IDEwLjYxM2MuMTM5LjI3NC4xNjMuNTg1LjA2Ni44NzdsLS4yMDcuNjM1YS42OTcuNjk3IDAgMCAxLS44NzguNDQ0bC0uNy0uMjI5YS45OC45OCAwIDAgMS0uNTc0LS40OTJsLS45ODYtMS42MS0uOTQtLjMzMy4zMzMtLjk0LS41LTEuMDQ3LS45NC0uMzMyLjMzMy0uOTQtLjUtMS4wNDctLjk0LS4zMzIuMTQtLjM5NmMuMTI1LS4zNS4xMDUtLjcyNy0uMDU1LTEuMDYybC0xLjU1NS0zLjI1NGExLjAyIDEuMDIgMCAwIDAtMS4wMDMtLjU4OSA1LjcgNS43IDAgMCAxLTQuNzQyLTEuNzg0IDUuNyA1LjcgMCAwIDEtMS41NDctNC4xNDcgNS43IDUuNyAwIDAgMSAxLjg2Ny00LjAxNGMxLjE0MS0xLjA0IDIuNzEyLTEuNTY0IDQuMzEtMS40MzdhNS43IDUuNyAwIDAgMSAxLjg3Ny40ODhjLjM1NC0uNDQ4LjU1Ny0uODUzLjY1OC0xLjA4N2E3IDcgMCAwIDAtMi40MzUtLjY0N2MtMS45NDItLjE1NS0zLjg1Ni40ODctNS4yNTIgMS43NmE2Ljk0IDYuOTQgMCAwIDAtMi4yNzQgNC44ODkgNi45NSA2Ljk1IDAgMCAwIDEuODg0IDUuMDUgNi45NCA2Ljk0IDAgMCAwIDUuNDc2IDIuMTk2LjE3LjE3IDAgMCAxIC4xNjcuMDk4bDEuNDQgMy4wMTUuMDA2LjEwNy0uNTA4IDEuNDM5YS4xNDcuMTQ3IDAgMCAwIC4wOS4xODdsMS40OS41MjYuMDU1LjExMy0uNTMgMS40OTZhLjE0LjE0IDAgMCAwIC4wODcuMTgxbDEuNDk2LjUyOC4wNTQuMTEzLS41MjUgMS40ODVhLjE1NS4xNTUgMCAwIDAgLjA5NC4xOTdsMS40ODQuNTI1LjE3Ny4wNDYuNiAxLjEyNWMuMjY3LjUzLjczNS45MyAxLjI5OSAxLjExNWwuNy4yM2ExLjk0NSAxLjk0NSAwIDAgMCAyLjQ1NS0xLjI0NWwuMjA4LS42MzlhMi40IDIuNCAwIDAgMC0uMTQtMS44MjciLz48cGF0aCBzdHlsZT0iZmlsbDojZmZmIiBkPSJNMzguODMgMjEuMjIxYzAtMy45NC0zLjIwNi03LjE0Ny03LjE0Ny03LjE0N3MtNy4xNDcgMy4yMDYtNy4xNDcgNy4xNDdjMCAuNTMuMDcgMS4xMjYuMTggMS42MjMuNTg3LS4zNDggMS4yMDUtLjY1MiAxLjktLjgzLS4wMzMtLjIzNC0uMDgtLjU1LS4wOC0uNzkzIDAtMi44MzggMi4zMDktNS4xNDcgNS4xNDctNS4xNDdzNS4xNDcgMi4zMSA1LjE0NyA1LjE0N2MwIDIuMjgtMS41IDQuMTg5LTMuNTU5IDQuODU4YTEuNSAxLjUgMCAwIDAtLjc0Mi0uMjA1IDEuNDkgMS40OSAwIDEgMCAwIDIuOThjLjU4NyAwIDEuMDg5LS4zNDIgMS4zMzItLjgzNSAyLjg3Ny0uOTI0IDQuOTctMy42MTcgNC45Ny02Ljc5OCIvPjwvc3ZnPg==" vertex="1" parent="1">
          <mxGeometry x="1056" y="570" width="140" height="140" as="geometry" />
        </mxCell>
        <mxCell id="XSCT2WYPgkQ0aujzjNFR-32" value="" style="shape=image;verticalLabelPosition=bottom;verticalAlign=top;imageAspect=0;aspect=fixed;image=data:image/svg+xml,PHN2ZyB4bWxucz0iaHR0cDovL3d3dy53My5vcmcvMjAwMC9zdmciIHZpZXdCb3g9IjAgMC4wMDIwMDAwMDAwOTQ5OTQ5MDI2IDYyLjM2MTk5OTUxMTcxODc1IDYyLjM2MjAwMzMyNjQxNjAxNiIgd2lkdGg9IjYyLjM2MTk5OTUxMTcxODc1IiBoZWlnaHQ9IjYyLjM2MjAwMzMyNjQxNjAxNiI+PHBhdGggc3R5bGU9ImZpbGw6I2RhMjkxYyIgZD0iTTMxLjMxNSA2Mi4zNjRDMTMuNDgzIDYyLjM2NCAwIDQ3LjU5MiAwIDMxLjMxNiAwIDEyLjYzNSAxNS41NTcuMDAyIDMxLjA4LjAwMmMxOC42MDIgMCAzMS4yODIgMTUuMzQgMzEuMjgyIDMwLjk0NyAwIDE5LjA1LTE1LjY1NyAzMS40MTUtMzEuMDQ3IDMxLjQxNSIvPjxwYXRoIHN0eWxlPSJmaWxsOiNmZmYiIGQ9Ik0yNS4yMzMgMzIuNzE1Yy0xLjM4OSAxLjQ0NC0yLjEzOCAzLjI0Ny0yLjA3OSA1LjEwOWwtMS44NzMgMS44NzNhNi4yIDYuMiAwIDAgMS0uMTQ3LTEuMzk3YzAtMi41NjcgMS43NS00LjgxNCA0LjEtNS41ODVtMi43NS0xLjUzNGgtLjk4Yy0zLjg4IDAtNy4xMiAzLjI0LTcuMTIgNy4xMiAwIDEuMjc4LjI3NyAyLjUzNiAxLjAwMiAzLjU1OWwzLjU2LTMuNTZjLS4zNDItMi42IDEuMjc4LTQuODYgMy41MzgtNi4xMzh6bS00Ljc5MS0zLjc2MWMuOTY1IDAgMS44OS4yMjIgMi43MS42NDItMi4wNDkuMDM2LTMuODMuNzg4LTUuMDk2IDIuMTRIMTguMTZhNi4yIDYuMiAwIDAgMSAuODg0LTEuMDkxYzEuMDktMS4wOSAyLjU2NC0xLjY5MSA0LjE1LTEuNjkxbTAtMS4yNWMtMS44MzEgMC0zLjY2My42ODUtNS4wMzQgMi4wNTctLjkwNC45MDQtMS41OTggMS45OS0xLjgwOSAzLjIyNWg1LjAzNGMxLjE0Mi0xLjQ4NiAyLjg2OC0yLjE0MSA0LjY3NC0yLjE0MS43MiAwIDEuNDU1LjEwNSAyLjE2OS4zMDNsLjY5My0uNjk0LS42OTMtLjY5M2MtMS4zNzItMS4zNzItMy4yMDMtMi4wNTctNS4wMzQtMi4wNTdtLjg2OC01LjAzNmMyLjU2NyAwIDQuODEzIDEuNzUgNS41ODUgNC4wOTgtMS4zODUtMS4zMzItMy4xMDMtMi4wODItNC44OTQtMi4wODJxLS4xMDcgMC0uMjE1LjAwNGwtMS44NzItMS44NzNhNi4yIDYuMiAwIDAgMSAxLjM5Ni0uMTQ3bTAtMS4yNWMtMS4yNzkgMC0yLjUzNy4yNzctMy41NiAxLjAwMmwzLjU2IDMuNTZxLjM1LS4wNDYuNjktLjA0NmMyLjMwNyAwIDQuMjg1IDEuNTI3IDUuNDQ5IDMuNTg0aC45OHYtLjk4YzAtMy44OC0zLjI0LTcuMTItNy4xMi03LjEybTguMDk5LTEuNzI0cS41NTUuMzQ2IDEuMDkxLjg4M2MxLjgxNiAxLjgxNSAyLjE2NiA0LjY0MiAxLjA1MSA2Ljg0Ny0uMDQtMi4wMDMtLjc4NC0zLjgwNy0yLjE0Mi01LjA4MnptLTEuMjUtMS44MDl2NS4wMzRjMi4wOCAxLjU5OCAyLjUzMiA0LjM0MSAxLjgzOSA2Ljg0M2wuNjkzLjY5My42OTMtLjY5M2MyLjc0My0yLjc0MyAyLjc0My03LjMyNSAwLTEwLjA2OC0uOTA0LS45MDQtMS45OS0xLjU5OC0zLjIyNS0xLjgwOW0xMC4xNyA2LjMxNHEuMTQ4LjY0LjE0OCAxLjM5N2MwIDIuNTY4LTEuNzUgNC44MTQtNC4wOTkgNS41ODUgMS4zODktMS40NDQgMi4xMzgtMy4yNDcgMi4wNzktNS4xMDl6bS4zOTUtMi4xNjMtMy41NiAzLjU2Yy4zNDIgMi42LTEuMjc4IDQuODYtMy41MzggNi4xMzl2Ljk4aC45OGMzLjg4IDAgNy4xMi0zLjI0IDcuMTItNy4xMiAwLTEuMjc4LS4yNzctMi41MzYtMS4wMDItMy41NTltMi43MjggMTEuNjU4YTYuMiA2LjIgMCAwIDEtLjg4MyAxLjA5MWMtMS4wOTEgMS4wOS0yLjU2NSAxLjY5Mi00LjE1IDEuNjkyLS45NjYgMC0xLjg5LS4yMjMtMi43MTEtLjY0MyAyLjA1LS4wMzYgMy44MzEtLjc4OCA1LjA5Ni0yLjE0em0xLjgwOS0xLjI1aC01LjAzNGMtMS4xNDIgMS40ODYtMi44NjggMi4xNDEtNC42NzMgMi4xNDFhOC4yIDguMiAwIDAgMS0yLjE3LS4zMDJsLS42OTMuNjkzLjY5My42OTNjMS4zNzIgMS4zNzIgMy4yMDMgMi4wNTcgNS4wMzQgMi4wNTdzMy42NjMtLjY4NSA1LjAzNC0yLjA1N2MuOTA1LS45MDQgMS41OTgtMS45OSAxLjgxLTMuMjI1Wm0tMTMuMjk2IDYuMjJjMS4zODQgMS4zMzIgMy4xMDIgMi4wODIgNC44OTMgMi4wODJxLjEwOCAwIC4yMTUtLjAwNGwxLjg3MyAxLjg3M2E2LjIgNi4yIDAgMCAxLTEuMzk3LjE0N2MtMi41NjcgMC00LjgxMy0xLjc1LTUuNTg0LTQuMDk4bS0uNTU0LTIuNzUyaC0uOTh2Ljk4YzAgMy44OCAzLjIzOSA3LjEyIDcuMTE4IDcuMTIgMS4yOCAwIDIuNTM3LS4yNzcgMy41Ni0xLjAwMmwtMy41Ni0zLjU2cS0uMzUuMDQ2LS42OS4wNDZjLTIuMzA3IDAtNC4yODQtMS41MjctNS40NDgtMy41ODRtLTQuMTAyIDIuMDg2Yy4wMzggMi4wMDYuNzgzIDMuODE0IDIuMTQyIDUuMDl2Mi42NDlhNi4yIDYuMiAwIDAgMS0xLjA5MS0uODgzYy0xLjA5LTEuMDkxLTEuNjkxLTIuNTY1LTEuNjkxLTQuMTUgMC0uOTY0LjIyMS0xLjg4Ni42NC0yLjcwNm0uODYtMy4wMjItLjY5My42OTNjLTIuNzQzIDIuNzQzLTIuNzQzIDcuMzI1IDAgMTAuMDY4LjkwNC45MDUgMS45OSAxLjU5OCAzLjIyNSAxLjgwOXYtNS4wMzRjLTIuMDgtMS41OTgtMi41MzItNC4zNC0xLjgzOC02Ljg0M3oiLz48cGF0aCBzdHlsZT0iZmlsbDojZmZmIiBkPSJNMzEuMTgxIDEyLjQ3MmMxMC4zMzMgMCAxOC43MDkgOC4zNzcgMTguNzA5IDE4LjcxUzQxLjUxNCA0OS44OSAzMS4xOCA0OS44OXMtMTguNzA4LTguMzc2LTE4LjcwOC0xOC43MSA4LjM3Ny0xOC43MDkgMTguNzEtMTguNzA5bTAtMmMtMTEuNDIgMC0yMC43MSA5LjI5LTIwLjcxIDIwLjcxczkuMjkgMjAuNzA4IDIwLjcxIDIwLjcwOFM1MS44OSA0Mi42IDUxLjg5IDMxLjE4IDQyLjYgMTAuNDcyIDMxLjE4IDEwLjQ3MiIvPjwvc3ZnPg==" vertex="1" parent="1">
          <mxGeometry x="466" y="1660" width="140" height="140" as="geometry" />
        </mxCell>
        <mxCell id="XSCT2WYPgkQ0aujzjNFR-33" value="" style="shape=image;verticalLabelPosition=bottom;verticalAlign=top;imageAspect=0;aspect=fixed;image=data:image/svg+xml,PHN2ZyB4bWxucz0iaHR0cDovL3d3dy53My5vcmcvMjAwMC9zdmciIHZpZXdCb3g9IjAgMCA2Mi4zNjE5OTk1MTE3MTg3NSA2Mi4zNjE5OTk1MTE3MTg3NSIgd2lkdGg9IjYyLjM2MTk5OTUxMTcxODc1IiBoZWlnaHQ9IjYyLjM2MTk5OTUxMTcxODc1Ij48cGF0aCBzdHlsZT0iZmlsbDojZGEyOTFjIiBkPSJNMzEuMzE1IDYyLjM2MkMxMy40ODMgNjIuMzYyIDAgNDcuNTkgMCAzMS4zMTUgMCAxMi42MzMgMTUuNTU3IDAgMzEuMDggMGMxOC42MDIgMCAzMS4yODIgMTUuMzQgMzEuMjgyIDMwLjk0NyAwIDE5LjA1LTE1LjY1NyAzMS40MTUtMzEuMDQ3IDMxLjQxNSIvPjxwYXRoIHN0eWxlPSJmaWxsOiNmZmYiIGQ9Ik0zOC43ODEgNTAuNmgtMTUuMmEzLjc4IDMuNzggMCAwIDEtMi45NC0xLjQwMmwtOS40ODItMTEuODlhMy43NyAzLjc3IDAgMCAxLS43MjItMy4yMWwzLjM5LTE0LjgwOWMuMjI3LTEuMTAxLjk5Mi0yLjA2NiAyLjA0Mi0yLjU1OGwxMy42NzUtNi41ODVhMy44MyAzLjgzIDAgMCAxIDMuMjY1LS4wMDVsMTMuNjkzIDYuNTk1YTMuODMgMy44MyAwIDAgMSAyLjAzMSAyLjU0OGwzLjM5MiAxNC44MmEzLjc3IDMuNzcgMCAwIDEtLjcxNiAzLjE5OEw0MS43MjggNDkuMTlhMy43OSAzLjc5IDAgMCAxLTIuOTQ3IDEuNDFtLTcuNjA2LTM4LjgyNGExLjc1IDEuNzUgMCAwIDAtLjc2LjE3bC0xMy42ODcgNi41OTFjLS40OTIuMjMtLjg0Mi42NjktLjk0NiAxLjE3N0wxMi4zODYgMzQuNTVhMS43OCAxLjc4IDAgMCAwIC4zNDEgMS41MTdsOS40NzEgMTEuODc1YTEuNzggMS43OCAwIDAgMCAxLjM4My42NThoMTUuMmMuNTM4IDAgMS4wNDQtLjI0MyAxLjM4OS0uNjY2bDkuNDctMTEuODczYy4zMzYtLjQyOC40Ni0uOTc5LjMzNy0xLjUwNWwtLjAwMS0uMDA2LTMuMzkxLTE0LjgxNGExLjggMS44IDAgMCAwLS45NTItMS4yTDMxLjk1IDExLjk0N2ExLjggMS44IDAgMCAwLS43NzUtLjE3MSIvPjxwYXRoIHN0eWxlPSJmaWxsOiNmZmYiIGQ9Ik0zNi4zMzMgNDMuMjM3aC0uMDFsLTEuMjktLjAxNGExLjM4IDEuMzggMCAwIDEtMS4xNTctLjY2bC0xLjgxNi0zLjAxN2MtLjM3NS0uNjgtMS4zOTUtLjY1OC0xLjc0My0uMDIybC0xLjg1MSAzLjAyNGExLjM2IDEuMzYgMCAwIDEtMS4xNTMuNjU0bC0xLjI5MS4wMTNhMS4zNiAxLjM2IDAgMCAxLTEuMDk4LS41MzJsLS43OTktMS4wMzRhMS4zNiAxLjM2IDAgMCAxLS4yLTEuMzEybDEuMjE4LTMuMjk4Yy4xNTUtLjM2NC4xMDYtLjczMi0uMTIxLTEuMDE2YS45Ny45NyAwIDAgMC0uOTM4LS4zNWwtMy41MTcuNDU1YTEuMzYgMS4zNiAwIDAgMS0xLjIzNS0uNDkxbC0uODIxLTEuMDA0YTEuMzggMS4zOCAwIDAgMS0uMjctMS4xOTRsLjMxNS0xLjI3MmMuMTE0LS40NTkuNDUtLjgyMi44OTgtLjk3bDMuMzM2LTEuMTA2Yy4zOC0uMTEyLjY0My0uMzkyLjcyMi0uNzU0YS45My45MyAwIDAgMC0uMzA3LS45MjNsLTIuNTUtMi40NTVhMS4zNiAxLjM2IDAgMCAxLS4zODktMS4yNzZsLjI3NC0xLjI2NGMuMDktLjQxNS4zNzMtLjc3Ljc1OC0uOTVsMS4xNzMtLjU0OGExLjM4IDEuMzggMCAwIDEgMS4zMzMuMDk4bDIuOTE4IDEuOTI3YS45OC45OCAwIDAgMCAxLjAwOC4wOTdjLjMzNy0uMTYuNTUzLS40NzguNTc4LS44NTJsLjMzOC0zLjUyYy4wNDUtLjQ2OC4zMzUtLjg4OC43NTYtMS4wOTdMMzAuNTY0IDE4Yy4zOC0uMTg3LjgzMy0uMTg4IDEuMjEzIDBsMS4xNjMuNTc1Yy40MjEuMjA3LjcxLjYyOC43NTUgMS4wOTZsLjMzOCAzLjUwMWMuMDIuMzk5LjIyLjcwNC41NTEuODY1YS45OS45OSAwIDAgMCAxLjAyMi0uMDgxbDIuOTU4LTEuOTIzYTEuMzcgMS4zNyAwIDAgMSAxLjMyNS0uMDkzbDEuMTc2LjU0OWMuMzg0LjE4LjY2OC41MzUuNzU4Ljk1bC4yNzUgMS4yNjVjLjEuNDY2LS4wNDQuOTQzLS4zODggMS4yNzVsLTIuNTI4IDIuNDM0Yy0uMjk1LjI1Ny0uNDEuNjA5LS4zMjguOTYyYS45Ni45NiAwIDAgMCAuNjg4LjcyN2wzLjM2NiAxLjExNWMuNDUuMTQ5Ljc4Ni41MTIuODk5Ljk3MWwuMzEzIDEuMjY2Yy4xMDQuNDIuMDAxLjg3LS4yNzMgMS4yMDNsLS44NCAxLjAwOWExLjM3IDEuMzcgMCAwIDEtMS4yMy40ODNsLTMuNDg2LS40NWMtLjM5LS4wNjUtLjc1LjA3Mi0uOTc4LjM2M2EuOTQuOTQgMCAwIDAtLjEyNS45N2wxLjIzIDMuMzI1Yy4xNjQuNDQ3LjA5LjkzNy0uMjAyIDEuMzEzbC0uNzk5IDEuMDMzYTEuMzcgMS4zNyAwIDAgMS0xLjA4NC41MzNabS01LjE1Mi01LjQ3Yy44MzIgMCAxLjU2NS40MzIgMS45NjIgMS4xNTdsMS44MDIgMi45OTJjLjAyLjAzNS4wNi4wNTcuMS4wNTdsMS4yODkuMDE0Yy0uMDAzLS4wMTEuMDctLjAxNy4wOTUtLjA0N2wuNzk5LTEuMDM0YS4xMi4xMiAwIDAgMCAuMDE2LS4xMTZsLTEuMjE3LTMuMjk2YTIuMTcgMi4xNyAwIDAgMSAuMzAyLTIuMjA0IDIuMjUgMi4yNSAwIDAgMSAyLjE0NS0uODI3bDMuNDY0LjQ0NmMuMDQuMDEuMDgxLS4wMS4xMDgtLjA0MWwuODM4LTEuMDA3YS4xMi4xMiAwIDAgMCAuMDIyLS4xMDdsLS4zMTItMS4yNjVhLjEyLjEyIDAgMCAwLS4wNzgtLjA4NWwtMy4zMzYtMS4xMDZhMi4yMSAyLjIxIDAgMCAxLTEuNTQ2LTEuNjQ2IDIuMTggMi4xOCAwIDAgMSAuNzA0LTIuMTZsMi41MDQtMi40MTJhLjEyLjEyIDAgMCAwIC4wMzQtLjExMWwtLjI3NC0xLjI2NGEuMTIuMTIgMCAwIDAtLjA2Ny0uMDgzbC0xLjE3NS0uNTQ4YS4xMy4xMyAwIDAgMC0uMTE2LjAwOGwtMi45NCAxLjkxYTIuMjIgMi4yMiAwIDAgMS0yLjI3LjE2OCAyLjIgMi4yIDAgMCAxLTEuMjQ3LTEuODk2bC0uMzM2LTMuNDczYS4xMi4xMiAwIDAgMC0uMDY0LS4wOTVsLTEuMTYzLS41NzVhLjEyLjEyIDAgMCAwLS4xMDYgMGwtMS4xNjIuNTc0YS4xMi4xMiAwIDAgMC0uMDY1LjA5NWwtLjMzNyAzLjUwM2EyLjIzIDIuMjMgMCAwIDEtMS4yODggMS44OCAyLjIgMi4yIDAgMCAxLTIuMjUxLS4xOTdsLTIuOS0xLjkxNGEuMTIuMTIgMCAwIDAtLjExNS0uMDA4bC0xLjE3My41NDdhLjEyLjEyIDAgMCAwLS4wNjYuMDgzbC0uMjczIDEuMjY0YS4xMi4xMiAwIDAgMCAuMDM0LjExMWwyLjUyNiAyLjQzM2EyLjE2IDIuMTYgMCAwIDEgLjY4NSAyLjExMiAyLjI1IDIuMjUgMCAwIDEtMS41NyAxLjY4bC0zLjMxNSAxLjFhLjEyLjEyIDAgMCAwLS4wNzkuMDg0bC0uMzE0IDEuMjdhLjEyLjEyIDAgMCAwIC4wMjQuMTA0bC44MjEgMS4wMDRjLjAyNi4wMzEuMDY2LjA1LjEwNy4wNDJsMy40ODQtLjQ1YTIuMiAyLjIgMCAwIDEgMi4xMDguODA2Yy41MS42NC42MjggMS41MDUuMzA0IDIuMjU4bC0xLjIwNSAzLjI2OWEuMTIuMTIgMCAwIDAgLjAxNy4xMTRsLjc5OSAxLjAzNGEuMTEuMTEgMCAwIDAgLjA5NC4wNDZsMS4yOTEtLjAxMmEuMTIuMTIgMCAwIDAgLjEtLjA1N2wxLjgzNi0yLjk5OGMuMzgyLS42OTggMS4xMTUtMS4xMyAxLjk0Ni0xLjEzWiIvPjwvc3ZnPg==" vertex="1" parent="1">
          <mxGeometry x="1056" y="1660" width="140" height="140" as="geometry" />
        </mxCell>
      </root>
    </mxGraphModel>
  </diagram>
</mxfile>
